<?xml version="1.0" encoding="UTF-8" standalone="no"?>
<!-- Created with Inkscape (http://www.inkscape.org/) -->

<svg
   width="1307.1019"
   height="1396.0956"
   viewBox="0 0 345.83738 369.38362"
   version="1.1"
   id="svg1"
   xml:space="preserve"
   inkscape:version="1.4.2 (ebf0e940d0, 2025-05-08)"
   sodipodi:docname="base.svg"
   inkscape:export-filename="base.png"
   inkscape:export-xdpi="96"
   inkscape:export-ydpi="96"
   xmlns:inkscape="http://www.inkscape.org/namespaces/inkscape"
   xmlns:sodipodi="http://sodipodi.sourceforge.net/DTD/sodipodi-0.dtd"
   xmlns="http://www.w3.org/2000/svg"
   xmlns:svg="http://www.w3.org/2000/svg"
   xmlns:rdf="http://www.w3.org/1999/02/22-rdf-syntax-ns#"
   xmlns:cc="http://creativecommons.org/ns#"
   xmlns:dc="http://purl.org/dc/elements/1.1/"><title
     id="title1">bearoforange (base logo)</title><sodipodi:namedview
     id="namedview1"
     pagecolor="#ffffff"
     bordercolor="#000000"
     borderopacity="0.25"
     inkscape:showpageshadow="2"
     inkscape:pageopacity="0.0"
     inkscape:pagecheckerboard="false"
     inkscape:deskcolor="#d1d1d1"
     inkscape:document-units="mm"
     inkscape:zoom="0.44636116"
     inkscape:cx="784.1184"
     inkscape:cy="814.36297"
     inkscape:window-width="1916"
     inkscape:window-height="1044"
     inkscape:window-x="0"
     inkscape:window-y="0"
     inkscape:window-maximized="1"
     inkscape:current-layer="layer11"
     showgrid="true"
     showguides="true"
     inkscape:export-bgcolor="#ffffffff"><inkscape:grid
       id="grid5"
       units="mm"
       originx="-71.798724"
       originy="-78.092294"
       spacingx="0.99999998"
       spacingy="1"
       empcolor="#0099e5"
       empopacity="0.30196078"
       color="#0099e5"
       opacity="0.14901961"
       empspacing="5"
       enabled="false"
       visible="false"
       dotted="true" /></sodipodi:namedview><defs
     id="defs1" /><g
     inkscape:groupmode="layer"
     id="layer11"
     inkscape:label="Skull"
     style="display:inline;opacity:1;fill:#000000"
     transform="translate(-71.798725,-78.092295)"><path
       style="display:inline;opacity:1;fill:#000000;stroke-width:0.206346"
       d="m 291.29167,275.87442 c 0,0 -2.28251,0.74751 -8.42097,3.19433 -2.97135,1.18437 -4.38455,1.61003 -7.3792,4.17851 -2.3825,2.04347 -0.68405,2.85918 -0.23842,4.81716 1.37672,6.04913 2.59388,6.96128 2.92131,11.11863 0.18027,2.28896 -3.84579,5.18151 -6.95201,8.06012 -3.10622,2.87861 -15.08732,8.34797 -18.48937,9.93122 -3.40205,1.58323 -7.54366,0.64769 -8.43115,-1.2234 -0.88748,-1.87111 0.73958,-3.52631 3.69788,-1.22341 2.9583,2.30288 11.86202,-1.844 20.1904,-7.48441 4.62234,-3.13049 6.62091,-5.20617 7.06551,-7.83625 0.4446,-2.63007 -0.81269,-6.60615 -1.74058,-10.08312 -1.28923,-4.83086 -3.08916,-5.29774 -20.24732,-3.28271 -13.24761,1.55579 -13.38703,1.90817 -12.88099,8.32802 0.50975,6.46682 3.44736,18.44739 -0.40263,23.82514 -2.30772,3.22351 -24.82152,2.29055 -29.85064,1.28303 -1.91241,-0.38313 -0.46223,-6.3165 2.51456,-2.77066 1.76591,2.10348 6.37768,1.74947 11.02953,1.80748 5.86178,0.0731 13.79479,0.74983 15.23385,-3.90651 1.88327,-6.09368 1.11325,-7.88308 0.41749,-15.91963 -0.75708,-8.74473 -1.57451,-11.20796 -4.19779,-11.09132 -6.87701,0.30578 -23.81432,-2.08698 -23.81432,-2.08698 -5.0291,-1.00752 -6.36034,-1.36736 -4.14162,8.41993 2.21872,9.78729 1.59433,23.90422 -1.60911,25.15893 -5.06893,1.98537 -16.75628,1.83863 -24.46725,0.5625 -4.11564,-0.68113 -6.68211,-0.93948 -6.33237,-2.36155 1.15052,-4.67811 3.11878,-0.37224 5.83479,0.30437 5.09809,1.27002 7.44037,1.64433 16.335,0.48417 3.36923,-0.43946 6.35283,-0.2144 7.5203,-2.39386 1.16748,-2.17946 1.25097,-7.27953 1.53939,-10.85243 0.59035,-7.31321 -1.48747,-15.55876 -3.48225,-18.55939 -3.62917,-5.45912 -24.10796,-3.28147 -24.10796,-3.28147 0.074,2.087 -0.18777,6.62777 -0.87054,14.24977 -0.6751,7.53619 -2.66357,16.28383 -5.26793,19.25009 -1.70854,1.94596 -6.47127,-1.29537 -10.31707,-2.51879 -3.53235,-1.1237 -8.06137,-3.52629 -11.38947,-4.60577 -3.32807,-1.07948 -2.5885,-2.37486 -1.77497,-4.42587 0.81354,-2.05102 1.55873,1.27314 4.59189,3.00332 3.03316,1.73016 7.26077,3.13926 13.8061,5.69936 5.33418,2.08637 7.17179,-8.06165 7.6352,-13.68865 0.35941,-4.36408 2.76491,-13.76706 -0.31377,-17.75962 -3.56414,-4.62209 -14.49109,-7.14231 -18.55084,-6.02137 -4.05974,1.12093 -2.47317,4.57506 -5.80038,19.98717 -0.57696,2.67258 -4.19776,11.14005 -8.43116,9.35552 -6.55996,-2.76528 -11.38945,-5.03759 -14.4217,-6.11707 -3.03225,-1.07948 -4.18151,-6.05275 -0.0747,-3.06395 1.00857,0.73401 9.76751,6.67618 15.60132,6.11058 6.18751,-0.59991 5.25547,-13.91339 7.32628,-21.39779 2.07081,-7.48439 2.97189,-6.2059 -0.59167,-8.13208 -7.695,-4.15933 -14.53813,-4.89559 -17.04927,-4.20472 -4.15278,1.14254 -2.71956,5.28317 -4.80832,13.88049 -1.41293,5.8155 -4.68868,9.03935 -5.64245,12.15851 -0.79965,2.61514 -5.68713,0.29825 -7.55635,-0.58959 -3.27163,-1.55399 -1.02447,-3.82995 4.04138,-1.6173 3.24773,1.41854 8.83664,-13.04454 8.96067,-19.71606 0.0903,-4.85942 0.65976,-5.51424 -2.60366,-6.78896 -3.26343,-1.27469 -10.35966,-3.16929 -14.30467,-4.19825 -6.24816,0.84441 -15.082695,11.45027 -15.741041,18.9809 -0.562497,6.43417 6.963991,7.33282 14.276771,8.54905 7.29049,1.21251 -2.82399,2.08637 -2.82399,2.08637 0,0 -9.628673,-2.34824 -11.55157,-4.36327 -1.922894,-2.01502 -3.328083,-3.02254 -2.736427,-8.27602 0.591656,-5.25346 7.930834,-11.86101 13.040367,-16.1675 2.52262,-2.12615 0.44416,-2.93913 0.44416,-2.93913 -9.17737,-0.94292 -12.531508,-23.07112 -3.45058,-34.72713 17.31521,-22.22529 10.14976,-1.46476 23.49994,-2.88697 21.27472,-2.26642 32.9412,-29.90033 34.78776,-26.36934 1.41884,2.71312 -11.48588,19.85966 -18.33948,27.29373 -12.00457,13.0213 -3.11265,20.66159 1.84164,20.34235 10.37665,-0.66867 11.58551,-24.60825 13.2152,-15.96899 2.62904,13.93687 3.55605,19.39469 15.24834,16.87413 6.7969,-1.46522 7.45585,-14.12427 4.78379,-16.87413 -1.80121,-1.85366 -14.15205,-16.77715 -14.35137,-25.40819 -0.0969,-4.19481 12.75678,-18.3288 18.53719,-4.17004 5.78043,14.15876 54.6032,35.60203 73.48967,19.41864 18.88648,-16.18339 12.544,-33.46395 11.41645,-37.57837 -1.12755,-4.11442 -15.92666,-22.0807 -31.57143,-15.77194 -15.64476,6.30877 -50.18106,30.04249 -68.92153,21.53212 -17.44921,-7.92397 -16.75006,-6.99338 -31.16406,-16.67474 -12.69647,-8.52774 -19.27666,12.53584 -19.94572,16.64046 -2.9139,17.87662 -8.1248,-4.31644 -8.1248,-4.31644 -1.6499,-2.8344 23.98859,-31.84239 23.98859,-31.84239 0,0 31.4405,-73.799029 106.98641,-71.056085 123.38335,4.479837 166.73551,50.408965 177.48823,99.885315 10.75272,49.47634 -11.09401,102.49991 -54.05024,124.49946 -90.89206,46.54934 40.26361,40.73067 -62.98661,80.68552 -103.2502,39.95486 -78.84694,84.04901 -146.70298,54.69549 0,0 -11.79166,-3.46737 -45.67186,-1.53698 -54.296027,3.0936 -30.700365,-47.53283 -13.701601,-69.74833 0,0 -20.431026,-33.28188 -1.140854,-32.91928 0,0 -5.078924,-18.49677 -3.895611,-30.73088 1.183324,-12.2341 7.691588,-12.37804 14.791516,-10.36301 7.09992,2.01503 13.01022,3.50356 8.93115,4.01244 -4.07908,0.50887 -16.316306,-5.39403 -18.931097,-0.50888 -2.614791,4.88518 -3.451526,10.48276 -2.091838,19.13359 1.359689,8.65081 4.497446,19.54067 4.497446,19.54067 0,0 18.079879,7.9165 21.006909,5.64508 2.5582,-1.98519 2.62011,-13.13742 3.86067,-20.64821 1.19355,-7.22625 2.39944,-12.06197 0.47655,-15.66023 -1.9229,-3.59827 -8.30711,-6.65393 -6.06451,-6.90868 2.96881,-0.33725 7.50323,2.25832 8.79567,5.20919 1.65669,3.7825 -3.98843,35.3073 -2.43532,39.19342 0,0 16.47086,8.22622 18.71123,5.25347 1.62708,-2.15895 3.10621,-14.1052 4.3635,-19.86243 1.02617,-4.69899 3.44537,-12.90436 -2.02748,-16.93443 -5.47286,-4.03005 -12.38744,-3.21162 -14.09525,-5.13212 -1.84912,-2.07937 -0.25687,-3.76538 4.43745,-1.39415 6.56401,3.31568 10.8067,3.65943 13.36835,6.28717 2.96355,3.04002 2.11761,9.15121 1.73538,14.00706 -0.44279,5.62538 -5.00744,21.29511 -2.73271,24.34535 0,0 21.66788,9.56326 24.29702,5.94993 4.92576,-6.76966 5.49003,-21.29799 2.4533,-29.39166 -1.81633,-4.84098 -20.28439,-8.13949 -20.58864,-10.60959 -0.3895,-3.16205 14.01881,4.1558 18.12176,5.27393 5.49811,1.49833 5.69596,1.58899 6.36034,8.7078 0.57795,6.19261 0.27061,18.29597 -1.40737,27.01856 v 0 c 0,0 23.57538,9.12694 28.65219,0.65826 5.17703,-8.63584 8.72698,-23.53265 1.77497,-28.28236 -5.7511,-3.92923 -20.04247,-2.51878 -23.88827,-2.51878 -4.82937,0 -9.63125,-2.88742 5.62076,-2.15897 14.60557,0.69758 19.08104,-1.43931 22.1133,5.46937 2.64956,6.03674 3.80845,11.62441 1.03541,18.20722 -1.69697,4.02833 -2.46203,7.96643 -3.04626,11.47692 1.07165,3.11896 4.79696,2.31286 20.33163,3.50224 6.79285,0.52009 12.58834,1.6091 14.78749,-1.75888 2.99246,-4.58296 1.465,-10.7606 0.63739,-15.80502 -1.56028,-9.51001 -0.89366,-17.64863 -13.63628,-18.13402 -7.98077,-0.30402 -13.21047,1.38586 -15.28132,1.79356 -6.39993,1.25997 0.74972,-3.88162 2.88625,-3.88546 15.67444,-0.0287 20.91627,0.12438 24.84453,4.73233 4.04353,4.74315 4.13736,15.09562 4.72593,25.96587 0,0 3.76441,7.35846 10.56286,4.50878 6.79847,-2.84967 15.85139,-5.80432 21.85967,-12.21291 5.43876,-5.80114 4.52515,-4.04577 5.63,-14.38001 2.05785,-19.24807 -2.50666,-18.8636 -14.4157,-14.32037 -15.13964,5.77569 -21.26198,9.87812 -23.97764,11.11885 -1.44717,0.66119 -1.09815,-1.33063 -0.21585,-2.7325 0.62938,-1.00002 1.81086,-1.66923 5.99454,-3.19586 8.36732,-3.05323 20.18619,-9.465 24.36985,-10.27921 4.18368,-0.81418 7.21346,-1.32256 7.32143,-2.3408 1.06607,-10.05524 13.11031,-31.88543 9.99839,-34.71532 z"
       id="path13"
       sodipodi:nodetypes="sssssssccssscssscsscsssssssssssssssssssssssscsscssssscssssscssssssscsssssscccssssssssssccccsssssssccscssssssscssssssssssssssssssssccsssssssssss"
       inkscape:label="Main" /></g><metadata
     id="metadata1"><rdf:RDF><cc:Work
         rdf:about=""><dc:creator><cc:Agent><dc:title>bearoforange</dc:title></cc:Agent></dc:creator><dc:rights><cc:Agent><dc:title>bearoforange</dc:title></cc:Agent></dc:rights><dc:publisher><cc:Agent><dc:title>bearoforange</dc:title></cc:Agent></dc:publisher><dc:title>bearoforange (base logo)</dc:title><dc:description>v. 1.0.0</dc:description></cc:Work></rdf:RDF></metadata></svg>
