<?xml version="1.0" encoding="UTF-8" standalone="no"?>
<!-- Created with Inkscape (http://www.inkscape.org/) -->

<svg
   width="1090.7645"
   height="997.52094"
   viewBox="0 0 288.59811 263.92741"
   version="1.1"
   id="svg1"
   xml:space="preserve"
   inkscape:version="1.4.2 (ebf0e940d0, 2025-05-08)"
   sodipodi:docname="bones.svg"
   inkscape:export-filename="bones.png"
   inkscape:export-xdpi="96"
   inkscape:export-ydpi="96"
   xmlns:inkscape="http://www.inkscape.org/namespaces/inkscape"
   xmlns:sodipodi="http://sodipodi.sourceforge.net/DTD/sodipodi-0.dtd"
   xmlns="http://www.w3.org/2000/svg"
   xmlns:svg="http://www.w3.org/2000/svg"
   xmlns:rdf="http://www.w3.org/1999/02/22-rdf-syntax-ns#"
   xmlns:cc="http://creativecommons.org/ns#"
   xmlns:dc="http://purl.org/dc/elements/1.1/"><title
     id="title1">bearoforange (bones logo)</title><sodipodi:namedview
     id="namedview1"
     pagecolor="#ffffff"
     bordercolor="#000000"
     borderopacity="0.25"
     inkscape:showpageshadow="2"
     inkscape:pageopacity="0.0"
     inkscape:pagecheckerboard="false"
     inkscape:deskcolor="#d1d1d1"
     inkscape:document-units="mm"
     inkscape:zoom="0.78432456"
     inkscape:cx="818.53869"
     inkscape:cy="757.97703"
     inkscape:window-width="1916"
     inkscape:window-height="1044"
     inkscape:window-x="0"
     inkscape:window-y="0"
     inkscape:window-maximized="1"
     inkscape:current-layer="layer1"
     showgrid="true"
     showguides="true"
     inkscape:export-bgcolor="#ffffff00"><inkscape:grid
       id="grid5"
       units="mm"
       originx="-80.042274"
       originy="-134.40411"
       spacingx="0.99999998"
       spacingy="1"
       empcolor="#0099e5"
       empopacity="0.30196078"
       color="#0099e5"
       opacity="0.14901961"
       empspacing="5"
       enabled="false"
       visible="false"
       dotted="true" /></sodipodi:namedview><defs
     id="defs1" /><g
     inkscape:groupmode="layer"
     id="layer11"
     inkscape:label="Skull"
     style="display:inline;opacity:1;fill:#000000"
     transform="translate(-50.404469,-188.34494)"><path
       style="display:inline;opacity:1;fill:#000000;stroke-width:0.123233"
       d="m 251.48948,306.46363 c 0,0 -1.36315,0.44643 -5.02914,1.90771 -1.77454,0.70733 -2.61852,0.96154 -4.40698,2.49547 -1.42287,1.2204 -0.40852,1.70755 -0.14239,2.87689 0.8222,3.61264 1.54911,4.15739 1.74466,6.64023 0.10766,1.367 -2.29677,3.09448 -4.15186,4.81363 -1.85508,1.71915 -9.01039,4.98554 -11.04215,5.93109 -2.03176,0.94553 -4.50519,0.38681 -5.03522,-0.73064 -0.53001,-1.11746 0.44169,-2.10597 2.20844,-0.73064 1.76674,1.37532 7.08419,-1.10127 12.05803,-4.46981 2.76054,-1.86958 3.95412,-3.10921 4.21964,-4.67993 0.26552,-1.57073 -0.48535,-3.9453 -1.0395,-6.02181 -0.76995,-2.88507 -1.8449,-3.16389 -12.09203,-1.96049 -7.91169,0.92915 -7.99495,1.13959 -7.69274,4.97363 0.30443,3.86209 2.05882,11.01708 -0.24046,14.22876 -1.3782,1.92514 -14.82381,1.36796 -17.82728,0.76625 -1.14212,-0.22881 -0.27605,-3.77232 1.50174,-1.65468 1.05463,1.25623 3.80885,1.04481 6.58701,1.07945 3.50075,0.0437 8.23847,0.44781 9.0979,-2.33303 1.12472,-3.63924 0.66485,-4.7079 0.24933,-9.50746 -0.45214,-5.22249 -0.94032,-6.69357 -2.50699,-6.62392 -4.10706,0.18262 -14.22229,-1.24637 -14.22229,-1.24637 -3.00346,-0.60171 -3.7985,-0.81661 -2.47345,5.02851 1.32506,5.84513 0.95216,14.27599 -0.96098,15.02533 -3.02725,1.18569 -10.00712,1.09806 -14.61224,0.33593 -2.45793,-0.40678 -3.99066,-0.56107 -3.78179,-1.41036 0.6871,-2.79384 1.86258,-0.2223 3.48463,0.18178 3.04466,0.75847 4.44351,0.98202 9.75552,0.28915 2.01216,-0.26245 3.79402,-0.12804 4.49125,-1.42965 0.69724,-1.30161 0.7471,-4.34745 0.91935,-6.48125 0.35256,-4.36756 -0.88834,-9.29194 -2.07966,-11.08396 -2.1674,-3.26028 -14.39766,-1.95975 -14.39766,-1.95975 0.0442,1.24639 -0.11214,3.95821 -0.5199,8.51019 -0.40318,4.50074 -1.59073,9.72497 -3.1461,11.49647 -1.02036,1.16216 -3.86474,-0.77362 -6.16152,-1.50426 -2.10958,-0.6711 -4.81438,-2.10596 -6.80197,-2.75065 -1.98758,-0.64468 -1.5459,-1.4183 -1.06005,-2.6432 0.48586,-1.2249 0.9309,0.76034 2.74236,1.79363 1.81145,1.03328 4.33625,1.87482 8.24522,3.40375 3.18566,1.24602 4.28311,-4.81454 4.55987,-8.17508 0.21464,-2.6063 1.65125,-8.22191 -0.18739,-10.60633 -2.12856,-2.76039 -8.65431,-4.2655 -11.07886,-3.59606 -2.42455,0.66944 -1.47702,2.7323 -3.46408,11.93666 -0.34457,1.59611 -2.50697,6.65302 -5.03523,5.58727 -3.91771,-1.65147 -6.80196,-3.00853 -8.61287,-3.65321 -1.81091,-0.64469 -2.49727,-3.61481 -0.0446,-1.82985 0.60233,0.43837 5.83331,3.98713 9.31736,3.64934 3.69528,-0.35827 3.13865,-8.3093 4.37537,-12.7791 1.23672,-4.4698 1.77486,-3.70627 -0.35336,-4.85661 -4.59557,-2.48402 -8.6824,-2.92373 -10.1821,-2.51113 -2.4801,0.68234 -1.62416,3.15519 -2.8716,8.28965 -0.84383,3.47311 -2.80016,5.39845 -3.36976,7.26126 -0.47757,1.56181 -3.39645,0.17812 -4.51278,-0.35211 -1.95387,-0.92807 -0.61183,-2.28731 2.41358,-0.96588 1.9396,0.84718 5.27738,-7.79041 5.35146,-11.77475 0.0539,-2.90212 0.39401,-3.29319 -1.55495,-4.05448 -1.94898,-0.76126 -6.18696,-1.89275 -8.54298,-2.50726 -3.73151,0.5043 -9.00763,6.83829 -9.40081,11.3357 -0.33593,3.84259 4.15901,4.37928 8.52632,5.10563 4.354,0.72413 -1.68653,1.24602 -1.68653,1.24602 0,0 -5.7504,-1.40241 -6.89879,-2.60582 -1.14838,-1.2034 -1.98758,-1.80511 -1.63423,-4.94257 0.35334,-3.13745 4.73642,-7.08359 7.78791,-9.6555 1.50655,-1.26977 0.26526,-1.75529 0.26526,-1.75529 -5.48087,-0.56313 -7.48402,-13.77845 -2.06074,-20.73961 10.34093,-13.2733 6.0616,-0.87477 14.03455,-1.72414 6.3528,-0.67677 11.27105,-5.14101 14.73895,-9.17246 3.46791,-4.03145 5.48546,-7.63012 6.03686,-6.57574 0.84736,1.62031 -6.85955,11.86051 -10.95263,16.30026 -7.16933,7.77653 -1.85893,12.33944 1.09985,12.14878 6.19711,-0.39934 6.91906,-14.69645 7.89233,-9.53694 1.57011,8.32333 2.12373,11.58282 9.10656,10.0775 4.05922,-0.87505 4.45275,-8.43524 2.85696,-10.0775 -1.07572,-1.10704 -8.45184,-10.01959 -8.57087,-15.17418 -0.0579,-2.50521 7.61855,-10.94626 11.07071,-2.49042 1.72608,4.22792 9.87856,9.54345 19.00943,12.59387 9.13087,3.05043 19.24013,3.83575 24.87979,-0.99674 11.27931,-9.66498 7.49148,-19.98521 6.81809,-22.44241 -0.67339,-2.4572 -9.51166,-13.18695 -18.85497,-9.41926 -9.34331,3.7677 -29.96894,17.94186 -41.16106,12.85933 -10.42095,-4.73232 -10.0034,-4.17656 -18.61168,-9.95842 -7.58254,-5.09291 -11.51233,7.4866 -11.91191,9.93795 -1.74022,10.6762 -4.85226,-2.57785 -4.85226,-2.57785 -0.98535,-1.69275 14.32638,-19.01679 14.32638,-19.01679 0,0 18.77677,-44.07398 63.89401,-42.43585 73.68654,2.67544 99.57715,30.10505 105.99885,59.65313 6.4217,29.54807 -6.62552,61.21461 -32.27968,74.3531 -54.28221,27.80002 24.04608,24.32501 -37.61662,48.1867 -61.66269,23.86169 -47.08867,50.19543 -87.6134,32.66503 0,0 -7.04217,-2.07077 -27.27597,-0.91791 -32.42647,1.84755 -18.33476,-28.38738 -8.18282,-41.65483 0,0 -12.20174,-19.87648 -0.68134,-19.65993 0,0 -3.03321,-11.04657 -2.32652,-18.35298 0.7067,-7.3064 4.59354,-7.39237 8.83373,-6.18896 4.24019,1.20341 7.76992,2.09239 5.33383,2.3963 -2.43609,0.3039 -9.74436,-3.2214 -11.30596,-0.30391 -1.56159,2.9175 -2.06131,6.26047 -1.24928,11.42689 0.81203,5.1664 2.68595,11.67 2.68595,11.67 0,0 10.7976,4.72786 12.54567,3.37133 1.5278,-1.18558 1.56477,-7.84588 2.30565,-12.33144 0.71281,-4.31564 1.43299,-7.20361 0.2846,-9.35254 -1.14838,-2.14895 -4.96114,-3.97384 -3.62182,-4.12598 1.77302,-0.20141 4.48105,1.3487 5.25292,3.11101 0.9894,2.25897 -2.38196,21.08609 -1.45441,23.40695 0,0 9.83666,4.91283 11.17465,3.13745 0.97171,-1.28935 1.85507,-8.42385 2.60595,-11.86216 0.61284,-2.80631 2.05763,-7.70669 -1.21085,-10.11352 -3.26848,-2.40681 -7.39798,-1.91803 -8.41791,-3.06498 -1.10432,-1.24183 -0.1534,-2.24875 2.65012,-0.83261 3.92013,1.98018 6.45394,2.18547 7.98379,3.7548 1.76988,1.81555 1.26468,5.46525 1.0364,8.36524 -0.26444,3.35957 -2.99052,12.71779 -1.63202,14.53944 0,0 12.94041,5.71133 14.51058,3.55339 2.94174,-4.04295 3.27873,-12.7195 1.46515,-17.55317 -1.08474,-2.89111 -12.11417,-4.86104 -12.29587,-6.33622 -0.23262,-1.88843 8.37226,2.48191 10.82261,3.14968 3.28356,0.89482 3.40172,0.94897 3.79849,5.20044 0.34517,3.69832 0.16162,10.92665 -0.8405,16.13592 v 0 c 0,0 14.0796,5.45075 17.11155,0.39312 3.09181,-5.15746 5.2119,-14.05408 1.06004,-16.89068 -3.43465,-2.3466 -11.96968,-1.50426 -14.26646,-1.50426 -2.88418,0 -5.75194,-1.72441 3.35681,-1.28937 8.72268,0.41661 11.39551,-0.85958 13.20642,3.2664 1.58236,3.60523 2.27447,6.94228 0.61837,10.87364 -1.01346,2.40579 -1.47037,4.75768 -1.81928,6.85421 0.64001,1.86269 2.86482,1.38127 12.14238,2.09159 4.0568,0.31061 7.51796,0.96098 8.83133,-1.05043 1.78714,-2.73702 0.87492,-6.42641 0.38066,-9.43902 -0.93183,-5.67953 -0.53371,-10.54004 -8.14381,-10.82993 -4.76625,-0.18156 -7.88951,0.82766 -9.12625,1.07115 -3.82214,0.75247 0.44774,-2.31817 1.72371,-2.32046 9.36103,-0.0171 12.49154,0.0743 14.83756,2.82622 2.41486,2.83269 2.4709,9.01535 2.8224,15.50724 0,0 2.24817,4.39459 6.30831,2.69272 4.06016,-1.70187 9.46671,-3.46644 13.05495,-7.29375 3.24812,-3.46454 2.70249,-2.4162 3.36233,-8.58798 1.22898,-11.49526 -1.49702,-11.26564 -8.60929,-8.55235 -9.04164,3.44933 -12.698,5.89937 -14.31984,6.64035 -0.86427,0.39488 -0.65583,-0.79467 -0.12891,-1.63189 0.37588,-0.59723 1.08148,-0.99689 3.58004,-1.90862 4.9971,-1.82344 12.05552,-5.65265 14.55407,-6.13891 2.49856,-0.48624 4.308,-0.78985 4.37248,-1.39796 0.63667,-6.00516 7.82969,-19.0425 5.9712,-20.73256 z"
       id="path13"
       sodipodi:nodetypes="sssssssccssscssscsscsssssssssssssssssssssssscsscssssscssssscsssssssscssssssscccssssssssssccccsssssssccscssssssscssssssssssssssssssssccsssssssssss"
       inkscape:label="Main" /></g><g
     inkscape:groupmode="layer"
     id="layer1"
     inkscape:label="Bones"
     style="display:inline;fill:#000000"
     transform="translate(-8.2435532,-56.311834)"><path
       style="font-variation-settings:normal;display:none;opacity:1;vector-effect:none;fill:#ff0000;fill-opacity:1;stroke-width:0.264583;stroke-linecap:butt;stroke-linejoin:miter;stroke-miterlimit:4;stroke-dasharray:none;stroke-dashoffset:0;stroke-opacity:1;-inkscape-stroke:none"
       d="m 123.88604,82.393106 c 0,0 8.29859,-13.337013 16.59717,-15.411658 8.29859,-2.074649 136.63031,40.011042 140.48323,46.234982 3.85291,6.22394 8.59496,21.33922 3.55652,22.52473 -5.03843,1.18552 -156.48763,-57.200969 -160.63692,-53.348054 z"
       id="path2"
       sodipodi:insensitive="true" /><path
       style="font-variation-settings:normal;display:none;opacity:1;vector-effect:none;fill:#ff0000;fill-opacity:1;stroke-width:0.264583;stroke-linecap:butt;stroke-linejoin:miter;stroke-miterlimit:4;stroke-dasharray:none;stroke-dashoffset:0;stroke-opacity:1;-inkscape-stroke:none"
       d="m 296.45218,125.7384 c 0,0 5.5571,-0.81504 9.78048,0.74095 4.22339,1.55598 10.7437,-1.92646 6.5944,-7.26127 -4.14928,-5.3348 -14.07795,-9.33591 -18.44953,-5.55708 -4.37158,3.77882 -10.5955,11.33646 -7.55764,12.1515 3.03787,0.81504 9.63229,-0.0741 9.63229,-0.0741 z"
       id="path3"
       sodipodi:insensitive="true" /><path
       style="font-variation-settings:normal;display:none;opacity:1;vector-effect:none;fill:#ff0000;fill-opacity:1;stroke-width:0.264583;stroke-linecap:butt;stroke-linejoin:miter;stroke-miterlimit:4;stroke-dasharray:none;stroke-dashoffset:0;stroke-opacity:1;-inkscape-stroke:none"
       d="m 287.26444,126.47935 c 4.37158,11.04008 16.00444,11.78103 16.00444,11.78103 0,0 12.2256,1.11141 11.70694,-3.70473 -0.51866,-4.81614 -1.11144,-6.22394 -5.63121,-6.96488 -4.51974,-0.74095 -10.52142,3.63063 -13.63337,1.63007 -3.11197,-2.00055 -8.4468,-2.74149 -8.4468,-2.74149 z"
       id="path4"
       sodipodi:insensitive="true" /><path
       style="font-variation-settings:normal;display:none;opacity:1;vector-effect:none;fill:#ff0000;fill-opacity:1;stroke-width:0.264583;stroke-linecap:butt;stroke-linejoin:miter;stroke-miterlimit:4;stroke-dasharray:none;stroke-dashoffset:0;stroke-opacity:1;-inkscape-stroke:none"
       d="m 315.49448,124.03423 c 0,0 3.26014,-6.8167 8.29858,-4.59386 5.03843,2.22283 24.30301,43.2712 20.00551,49.93971 -4.29746,6.6685 -11.70694,16.44898 -14.22614,5.92756 -2.5192,-10.52142 -12.89246,-39.2701 -14.07795,-51.27341 z"
       id="path5"
       sodipodi:insensitive="true" /><path
       style="font-variation-settings:normal;display:none;opacity:1;vector-effect:none;fill:#ff0000;fill-opacity:1;stroke-width:0.264583;stroke-linecap:butt;stroke-linejoin:miter;stroke-miterlimit:4;stroke-dasharray:none;stroke-dashoffset:0;stroke-opacity:1;-inkscape-stroke:none"
       d="m 303.71345,138.85313 c 0,0 5.26071,7.55764 8.89135,3.63063 3.63061,-3.92701 20.82054,41.12246 14.44842,44.53081 -6.37212,3.40835 -14.07795,0.74095 -14.96708,-0.74095 -0.88914,-1.48189 -10.07687,-34.08347 -9.4841,-40.30741 0.59275,-6.22395 1.11141,-7.11308 1.11141,-7.11308 z"
       id="path6"
       sodipodi:insensitive="true" /><path
       style="font-variation-settings:normal;display:inline;opacity:1;vector-effect:none;fill:#000000;fill-opacity:1;stroke-width:0.264583;stroke-linecap:butt;stroke-linejoin:miter;stroke-miterlimit:4;stroke-dasharray:none;stroke-dashoffset:0;stroke-opacity:1;-inkscape-stroke:none"
       d="m 108.54961,375.06314 c 0,0 -7.24507,-0.1915 -15.616583,1.60792 -8.371514,1.79942 -15.728062,7.26559 -22.375248,13.55347 -7.754122,7.33498 -23.576732,-9.95462 -19.490098,-14.66997 4.086633,-4.71535 14.460396,-4.40099 6.182343,-15.50825 -8.278053,-11.10726 1.466997,-17.39439 5.239274,-17.49918 10.072968,-0.27982 16.556105,16.55611 23.681518,15.61304 7.125412,-0.94307 35.321094,-9.00674 39.154714,-5.7474 2.3251,1.97679 5.03145,5.54394 4.52667,8.08298 -0.50477,2.53904 -3.75605,7.21126 -5.33007,9.24972 -5.62715,7.28752 -9.12688,5.02724 -15.97252,5.31767 z"
       id="path8"
       transform="translate(-42.160915,-132.03311)"
       inkscape:label="Bottom left"
       sodipodi:nodetypes="csssssssssc" /><path
       style="font-variation-settings:normal;opacity:1;vector-effect:none;fill:#000000;fill-opacity:1;stroke-width:0.264583;stroke-linecap:butt;stroke-linejoin:miter;stroke-miterlimit:4;stroke-dasharray:none;stroke-dashoffset:0;stroke-opacity:1;-inkscape-stroke:none"
       d="m 88.172479,176.41906 c -0.444566,4.96433 0.07409,15.18937 -6.001654,8.0763 -6.075752,-7.11308 -21.265129,-22.00607 -28.378203,-21.04285 -7.113074,0.96323 -23.932531,5.11252 -22.672923,-5.63118 1.259607,-10.74371 -0.740945,-24.52529 10.817799,-18.67182 11.558746,5.85347 1.333703,-18.00497 12.447881,-18.8941 11.114177,-0.88914 19.19048,3.26016 17.782685,14.74481 -1.407798,11.48465 -5.334807,15.18937 3.927009,20.89465 9.261814,5.70528 13.411107,8.59497 14.967093,10.37323 4.392334,5.01981 -2.153147,1.92629 -2.889687,10.15096 z"
       id="path7"
       sodipodi:nodetypes="ssssssssss"
       inkscape:label="Upper left" /><path
       style="font-variation-settings:normal;display:inline;vector-effect:none;fill:#000000;fill-opacity:1;stroke-width:0.264583;stroke-linecap:butt;stroke-linejoin:miter;stroke-miterlimit:4;stroke-dasharray:none;stroke-dashoffset:0;stroke-opacity:1;-inkscape-stroke:none"
       d="m 180.44827,256.88613 c 4.19953,-3.02211 9.86754,-7.01235 13.91769,-2.70961 6.41182,6.8117 19.3625,18.14044 26.96735,22.82292 6.11227,3.76346 22.87789,-1.34123 25.37617,7.37286 2.98116,10.3984 -3.94853,24.22584 -15.10725,17.64171 -11.15871,-6.58413 -2.78344,20.61084 -13.63627,18.05516 -9.96284,-2.3461 -18.94132,-4.48659 -16.79844,-15.85704 2.14288,-11.37045 6.29983,-14.81517 -2.57622,-21.10381 -8.87606,-6.28865 -18.8473,-14.21752 -20.41944,-15.98152 -2.80107,-3.14294 -4.28055,-5.52208 2.27641,-10.24067 z"
       id="path7-3"
       sodipodi:nodetypes="ssssssssss"
       inkscape:label="Bottom right" /><path
       style="font-variation-settings:normal;opacity:1;vector-effect:none;fill:#000000;fill-opacity:1;stroke-width:0.264583;stroke-linecap:butt;stroke-linejoin:miter;stroke-miterlimit:4;stroke-dasharray:none;stroke-dashoffset:0;stroke-opacity:1;-inkscape-stroke:none"
       d="m 236.0996,230.13189 c 5.54084,2.73094 19.72837,-1.75682 25.6036,-2.31363 10.25104,-0.97151 10.26011,7.96644 17.26244,10.33342 4.90452,1.65787 11.42891,8.20347 15.7419,-2.6652 1.97578,-4.97894 3.44108,-10.63958 0.35355,-12.31096 -3.08754,-1.67138 -4.49319,-1.89521 -6.92432,-5.11939 -4.1745,-5.53624 6.72914,-11.08428 -0.82071,-16.49035 -8.48763,-6.07756 -12.77003,-8.78472 -18.94256,0.90275 -7.54453,11.84075 -9.07296,7.06897 -18.33744,8.12087 -2.00272,0.22739 -12.33688,0.2336 -14.43758,0.5975 -2.10069,0.36389 0.0608,3.27608 5.88988,9.11294 3.53159,3.53627 -7.48524,8.79875 -5.38876,9.83205 z"
       id="path9"
       sodipodi:nodetypes="ssssssssssss"
       inkscape:label="Upper right" /></g><metadata
     id="metadata1"><rdf:RDF><cc:Work
         rdf:about=""><dc:creator><cc:Agent><dc:title>bearoforange</dc:title></cc:Agent></dc:creator><dc:rights><cc:Agent><dc:title>bearoforange</dc:title></cc:Agent></dc:rights><dc:publisher><cc:Agent><dc:title>bearoforange</dc:title></cc:Agent></dc:publisher><dc:title>bearoforange (bones logo)</dc:title><dc:description>v. 1.0.0</dc:description></cc:Work></rdf:RDF></metadata></svg>
