<?xml version="1.0" encoding="UTF-8" standalone="no"?>
<!-- Created with Inkscape (http://www.inkscape.org/) -->

<svg
   width="832.44495"
   height="666.15778"
   viewBox="0 0 220.25105 176.25424"
   version="1.1"
   id="svg1"
   xml:space="preserve"
   inkscape:version="1.4.2 (ebf0e940d0, 2025-05-08)"
   sodipodi:docname="classic.svg"
   inkscape:export-filename="classic.png"
   inkscape:export-xdpi="96"
   inkscape:export-ydpi="96"
   xmlns:inkscape="http://www.inkscape.org/namespaces/inkscape"
   xmlns:sodipodi="http://sodipodi.sourceforge.net/DTD/sodipodi-0.dtd"
   xmlns="http://www.w3.org/2000/svg"
   xmlns:svg="http://www.w3.org/2000/svg"
   xmlns:rdf="http://www.w3.org/1999/02/22-rdf-syntax-ns#"
   xmlns:cc="http://creativecommons.org/ns#"
   xmlns:dc="http://purl.org/dc/elements/1.1/"><title
     id="title1">bearoforange (classic logo)</title><sodipodi:namedview
     id="namedview1"
     pagecolor="#ffffff"
     bordercolor="#000000"
     borderopacity="0.25"
     inkscape:showpageshadow="2"
     inkscape:pageopacity="0.0"
     inkscape:pagecheckerboard="true"
     inkscape:deskcolor="#d1d1d1"
     inkscape:document-units="mm"
     inkscape:zoom="4"
     inkscape:cx="391.25"
     inkscape:cy="389.375"
     inkscape:window-width="1916"
     inkscape:window-height="1044"
     inkscape:window-x="0"
     inkscape:window-y="0"
     inkscape:window-maximized="1"
     inkscape:current-layer="layer2"
     showgrid="true"
     showguides="true"
     inkscape:export-bgcolor="#ffffff00"><inkscape:grid
       id="grid5"
       units="mm"
       originx="-104.949"
       originy="-202.01666"
       spacingx="0.99999998"
       spacingy="1"
       empcolor="#0099e5"
       empopacity="0.30196078"
       color="#0099e5"
       opacity="0.14901961"
       empspacing="5"
       enabled="false"
       visible="false"
       dotted="true" /></sodipodi:namedview><defs
     id="defs1" /><g
     inkscape:groupmode="layer"
     id="layer2"
     inkscape:label="Teeth"
     style="display:inline;fill:#000000"><path
       d="m 115.59543,114.79096 c 0,0 2.21055,2.64118 4.70888,0.85411 2.49834,-1.78706 5.9029,-3.82547 7.75077,-6.98532 1.67271,-2.86035 1.464,-2.0626 0.95631,-6.36352 -0.94559,-8.010672 -2.76449,-7.431954 -7.18241,-4.483767 -11.88062,7.511487 -9.78729,4.949947 -6.23355,16.978497 z"
       style="display:inline;fill:#ffffff;stroke-width:0.0859833"
       id="path1-29"
       inkscape:label="B6" /><path
       d="m 98.331388,107.58581 c -0.325595,1.03312 0.302998,2.0576 0.553395,3.4183 0.240196,1.30527 0.885221,2.62185 0.789983,4.01935 -0.123843,1.81724 0.200134,3.38282 0.287717,4.86316 0.724097,1.16799 2.163017,0.49565 8.584607,-0.45907 2.80797,-0.41746 5.26339,-0.51147 5.84512,-2.08339 0.79157,-2.13898 -0.40083,-4.50747 -1.20401,-6.48034 -1.5142,-3.71933 -2.14765,-7.69235 -7.21876,-6.10534 -2.64785,0.82864 -6.922405,0.55657 -7.638052,2.82733 z"
       style="display:inline;fill:#ffffff;stroke-width:0.0859833"
       id="path1-7"
       inkscape:label="B5" /><path
       d="m 84.661782,110.60684 c 0.808014,2.46247 1.929146,11.10749 1.929146,11.10749 0,0 11.445928,1.7217 11.701872,-2.38471 0.241761,-3.87887 0.740933,-9.90573 -1.896776,-11.65498 -2.418814,-1.60408 -8.34119,1.05958 -9.938583,1.18784 -2.060085,0.16541 -1.860692,-0.10531 -1.795659,1.74436 z"
       style="display:inline;fill:#ffffff;stroke-width:0.0859833"
       id="path1-92"
       inkscape:label="B4" /><path
       d="m 72.926166,111.45321 c 0.340797,2.32649 -0.06329,9.11539 1.143237,10.14409 0,0 9.688533,1.87974 10.422252,0.16834 1.374633,-3.20635 0.259092,-9.16122 -1.723861,-12.16846 -0.933502,-1.41569 -9.48419,-2.45497 -10.275749,-1.73775 -0.245672,1.22912 0.262772,2.39884 0.434121,3.59378 z"
       style="display:inline;fill:#ffffff;stroke-width:0.0859833"
       id="path1-02"
       inkscape:label="B3" /><path
       d="m 62.664137,113.14241 c 0.561155,3.66475 0.648264,7.26744 1.143626,7.98499 0,0 7.4533,1.81758 8.088362,0.40242 0.461212,-1.02775 -0.04363,-6.01824 -0.06572,-8.47369 -0.01804,-2.00411 0.205325,-5.56176 -2.391251,-6.69254 -3.684249,-1.23729 -6.177988,-1.5909 -7.350673,-0.85616 -1.251387,0.78405 0.06515,4.30098 0.575656,7.63498 z"
       style="display:inline;fill:#ffffff;stroke-width:0.0859833"
       id="path1-8"
       inkscape:label="B2" /><path
       d="m 55.9397,103.68991 c -1.68747,-0.29409 -7.128351,-0.68121 -7.738516,1.54559 -0.610156,2.22679 -0.431981,4.57846 0.921194,7.9673 1.353171,3.38883 3.635999,7.52277 3.635999,7.52277 0,0 8.078356,1.54281 9.057312,0.34903 0.855603,-1.04334 -0.287722,-5.55282 -0.478928,-8.71916 -0.183967,-3.04639 -0.241394,-5.00382 -0.871726,-6.58268 -0.868635,-1.65416 -2.906889,-1.80078 -4.525335,-2.08285 z"
       style="display:inline;fill:#ffffff;stroke-width:0.0859833"
       id="path1-06"
       inkscape:label="B1" /><path
       d="m 111.56169,98.845857 c 1.83043,0.729923 6.56632,-2.385063 9.42791,-5.447573 1.58822,-1.699733 2.20808,-2.72804 2.14526,-3.837751 -0.0628,-1.109718 -0.94167,-2.608755 -1.6405,-3.935509 -0.97096,-1.843367 -1.74546,-1.866441 -8.53003,0.540454 -5.23829,1.85834 -5.26231,2.014409 -4.46248,4.575858 l 1.74039,5.677594 c 0,0 0.61234,2.144946 1.31945,2.426927 z"
       style="display:inline;fill:#ffffff;stroke-width:0.0859833"
       id="path1-2"
       inkscape:label="U6"
       sodipodi:nodetypes="sssssccs" /><path
       d="m 97.249172,102.58275 c 0.912167,0.69115 4.803608,-0.078 6.698958,-0.48502 2.38832,-0.51286 5.67401,-0.97225 5.82766,-2.997251 0.2011,-2.650089 -0.27739,-3.305822 -1.30395,-6.506545 -1.11704,-3.482767 -1.67715,-4.407872 -2.73215,-4.117673 -2.76572,0.760798 -9.868565,1.356443 -9.868565,1.356443 -2.136506,0.05617 -2.710677,0.03321 -0.903303,3.804245 l 1.53755,4.671342 z"
       style="display:inline;fill:#ffffff;stroke-width:0.0859833"
       id="path1-93"
       inkscape:label="U5" /><path
       d="m 59.854224,436.28191 c -0.150585,1.6497 8.935205,0.4444 13.960588,-1.41114 1.903587,-0.70287 3.670785,-0.96763 4.061459,-2.3916 0.390684,-1.42398 -0.237297,-4.40479 -0.543348,-6.52354 -0.626447,-4.33676 -2.930232,-8.86246 -4.489862,-10.34507 -2.837479,-2.69736 -14.473278,1.28748 -14.473278,1.28748 0.319966,1.20543 0.769929,3.88422 1.383521,8.41305 0,0 0.420045,7.47471 0.10092,10.97082 z"
       style="display:inline;opacity:1;fill:#ffffff;stroke-width:0.123233"
       id="path1-1"
       transform="matrix(0.69772967,0,0,0.69772967,41.540382,-199.02641)"
       inkscape:label="U4"
       sodipodi:nodetypes="sssssccs" /><path
       d="m 72.264287,103.51514 c 0.257611,0.54134 0.751136,0.37298 2.143618,0.79516 1.392474,0.42218 3.240521,0.60336 6.136753,1.03762 2.360319,0.35391 2.167574,-3.93916 1.834996,-6.268226 -0.257936,-1.806325 -0.150988,-5.84927 -1.771375,-7.186413 -1.875892,-1.547976 -6.548621,-1.560459 -8.094278,-0.729253 -1.545656,0.831205 -0.581328,2.087697 -0.506518,8.65738 z"
       style="display:inline;fill:#ffffff;stroke-width:0.0859833"
       id="path1-3"
       inkscape:label="U3" /><path
       d="m 62.642384,102.31221 c 0.477707,0.20487 6.504587,1.77524 7.896379,1.10466 1.166826,-0.56219 0.837434,-2.18282 0.653057,-4.060973 -0.184378,-1.878156 -0.657481,-4.058317 -0.583203,-5.674551 0.148554,-3.232477 0.632991,-2.796452 -0.993125,-3.249174 -3.511356,-0.977589 -6.359767,-0.6433 -7.316058,-0.130169 -1.581449,0.848586 -0.615874,2.398202 -0.668714,6.084503 -0.03574,2.493533 -1.068224,4.106554 -1.167001,5.462104 z"
       style="display:inline;fill:#ffd42a;stroke-width:0.0859833"
       id="path1-9"
       inkscape:label="U2" /><path
       d="m 58.814823,101.575 c 1.45081,0.27571 2.399273,-6.41541 1.832129,-9.137427 -0.413137,-1.982655 -0.242374,-2.301413 -1.68624,-2.517242 -1.443875,-0.215807 -4.502332,-0.328707 -6.20037,-0.381595 -2.460373,0.921429 -5.067986,6.048179 -4.638403,9.168698 0.367038,2.666176 4.917647,2.491266 6.476007,2.664466 1.55836,0.1732 4.216877,0.2031 4.216877,0.2031 z"
       style="display:inline;fill:#ffffff;stroke-width:0.0859833"
       id="path1"
       sodipodi:nodetypes="ccccssc"
       inkscape:label="U1" /></g><g
     inkscape:groupmode="layer"
     id="layer4"
     inkscape:label="Shades"
     style="display:inline"><path
       d="m 100.73988,105.05591 c 4.77297,-1.09659 7.18053,-1.60738 8.92828,-1.16019 3.30916,-0.14086 2.86088,-0.7561 5.24732,-2.28988 3.11689,-2.014989 7.32522,-5.713989 8.94961,-6.432044 1.6244,-0.718047 2.75791,-1.628731 2.75791,-1.628731 0,0 2.51159,-15.584043 0.84881,-15.029788 -1.06206,0.661343 -2.09397,1.369909 -3.12564,2.077288 -1.09759,0.756234 -1.63235,1.059984 -2.61129,2.380709 -0.77882,1.050767 -0.0132,1.224962 0.34903,1.979208 1.11927,2.330236 1.69822,2.588166 2.21607,4.246927 0.28512,0.913279 -1.08287,2.461144 -2.07842,3.918199 -0.99556,1.457055 -5.17753,5.081335 -6.59268,5.746348 -2.51222,1.180554 -3.58286,0.238672 -5.06188,1.781524 -1.08354,1.52327 -9.86289,2.80959 -11.9994,2.86575 l -1.891652,0.26483 c -1.875657,1.27583 -6.664913,2.7032 -9.921675,2.72483 -3.005038,0.02 -5.118474,-0.15397 -8.305473,-0.53488 -1.539156,-0.12957 -3.601616,-0.68649 -5.053689,-0.817 l -3.947099,-0.74618 c -2.921172,-0.51628 -5.093652,-0.99245 -6.425529,-1.15034 l -5.68337,-0.94398 -3.579628,-0.34018 c -2.225456,0.15231 -7.61162,-2.920146 -5.740983,1.74226 0.358109,0.89256 0.887639,-0.74149 3.921202,-0.82417 1.535554,0.0807 2.938094,0.13553 3.755474,0.24318 l 1.897961,0.28186 c 0.728042,0.15789 1.422523,0.27979 2.034775,0.49712 0,0 3.522225,0.46497 5.283337,0.69746 8.989036,1.18666 3.904821,1.22475 11.601992,2.32286 0.301548,0.0441 7.610947,1.3829 8.783813,1.2881 0.676132,-0.0546 1.67815,-0.47299 3.244172,-0.75195 2.999294,-0.53426 4.897253,-1.2473 6.292956,-1.26041 3.194969,-0.03 3.804514,-0.24066 5.905696,-1.14873 z"
       style="display:inline;fill:#483737;stroke-width:0.0859833"
       id="path1-0"
       inkscape:label="Mouth" /><path
       d="m 50.400353,70.373923 c 1.036362,0.718724 2.112058,2.53982 4.758223,1.633036 4.216897,-1.44504 6.870848,-5.244338 8.605208,-8.524414 1.734368,-3.280083 2.549137,-6.040951 3.087673,-5.409122 0.827591,0.970954 -2.82825,9.131845 -4.924636,12.786587 -3.671975,6.401538 0.647888,8.682604 2.631187,8.094314 4.153982,-1.23217 2.429187,-11.070354 3.890982,-7.711197 2.35819,5.41898 3.24001,7.550593 7.757097,5.444252 2.625851,-1.224446 1.721799,-6.428616 0.381651,-7.298504 -0.903391,-0.586386 -7.302717,-5.506329 -8.182613,-8.994537 -0.427676,-1.695309 3.486297,-8.627519 7.145378,-3.410091 1.829541,2.608713 8.199516,4.961283 14.884011,5.621266 6.684497,0.659982 13.683516,-0.372616 16.771156,-4.534245 6.1753,-8.32326 1.99889,-14.757004 1.15994,-16.324258 -0.83895,-1.567255 -8.514623,-7.496813 -14.286886,-3.48553 -5.772265,4.01129 -17.606946,16.850737 -26.008664,15.127798 -7.822814,-1.604227 -7.452617,-1.290856 -14.204946,-3.890031 -5.94774,-2.289461 -7.379593,6.931902 -7.271487,8.661483 0,0 0.172531,4.697849 0.786666,6.95093 0.531862,1.95125 3.02006,5.262263 3.02006,5.262263 z"
       style="display:inline;fill:#483737;stroke-width:0.0859833"
       id="path1-4"
       sodipodi:nodetypes="cssssscsscssssssscsc"
       inkscape:label="Eyes" /></g><g
     inkscape:groupmode="layer"
     id="layer1"
     inkscape:label="Bones"
     style="display:inline;fill:#000000"
     transform="translate(-99.462945,-84.327622)"><path
       style="font-variation-settings:normal;display:inline;opacity:1;vector-effect:none;fill:#aca793;fill-opacity:1;stroke-width:0.184607;stroke-linecap:butt;stroke-linejoin:miter;stroke-miterlimit:4;stroke-dasharray:none;stroke-dashoffset:0;stroke-opacity:1;-inkscape-stroke:none"
       d="m 140.32552,231.66547 c 0,0 -4.95848,0.99265 -10.3747,3.5143 -5.41623,2.52166 -9.57365,7.38049 -13.12115,12.68837 -4.13824,6.19179 -17.582055,-3.11789 -15.53278,-6.95913 2.04929,-3.84123 9.15525,-5.23523 1.80218,-11.50843 -7.353075,-6.27321 -1.698,-12.06072 0.85203,-12.71669 6.80924,-1.75159 13.82913,8.69701 18.53036,6.95106 4.70123,-1.74594 22.63288,-11.60174 25.74605,-9.9786 1.88814,0.98444 4.28214,2.99169 4.33227,4.79724 0.0501,1.80553 -1.43754,5.48796 -2.1924,7.11867 -2.69863,5.82984 -5.42981,4.83462 -10.04186,6.09321 z"
       id="path8"
       inkscape:label="Bottom left"
       sodipodi:nodetypes="csssssssssc" /><path
       style="font-variation-settings:normal;opacity:1;vector-effect:none;fill:#aca793;fill-opacity:1;stroke-width:0.184607;stroke-linecap:butt;stroke-linejoin:miter;stroke-miterlimit:4;stroke-dasharray:none;stroke-dashoffset:0;stroke-opacity:1;-inkscape-stroke:none"
       d="m 144.8208,182.97391 c 0.46699,3.44612 2.40464,10.32179 -2.83114,6.42449 -5.23579,-3.89732 -17.87737,-11.67475 -22.56708,-9.91701 -4.68972,1.75776 -15.48884,7.18739 -16.29712,-0.31675 -0.80828,-7.50415 -4.305275,-16.56964 4.46534,-14.37905 8.77062,2.19058 -1.8833,-12.45545 5.53983,-14.78293 7.42313,-2.32749 13.56053,-0.75649 14.38284,7.27468 0.8223,8.03118 -1.27503,11.16014 5.91003,13.60592 7.18505,2.44577 10.45568,3.76852 11.78983,4.7371 3.76612,2.73418 -1.16621,1.64417 -0.39253,7.35355 z"
       id="path7"
       sodipodi:nodetypes="ssssssssss"
       inkscape:label="Upper left" /><path
       style="font-variation-settings:normal;display:inline;vector-effect:none;fill:#aca793;fill-opacity:1;stroke-width:0.184607;stroke-linecap:butt;stroke-linejoin:miter;stroke-miterlimit:4;stroke-dasharray:none;stroke-dashoffset:0;stroke-opacity:1;-inkscape-stroke:none"
       d="m 220.0675,223.41343 c 2.38852,-2.70683 5.626,-6.29988 9.0482,-4.00047 5.4177,3.6402 15.98387,9.33986 21.88317,11.34665 4.74147,1.61292 15.35589,-4.45832 18.40608,1.08264 3.63974,6.61194 1.06863,17.09275 -7.5431,14.3431 -8.61173,-2.74965 1.30094,14.4529 -6.47832,14.39638 -7.14131,-0.0519 -13.58111,-0.11646 -13.88564,-8.18388 -0.30453,-8.06741 1.98953,-11.05513 -5.02351,-13.95756 -7.01305,-2.90244 -15.02536,-6.75097 -16.36829,-7.70734 -2.39269,-1.70399 -3.76793,-3.0932 -0.0386,-7.31952 z"
       id="path7-3"
       sodipodi:nodetypes="ssssssssss"
       inkscape:label="Bottom right" /><path
       style="font-variation-settings:normal;opacity:1;vector-effect:none;fill:#aca793;fill-opacity:1;stroke-width:0.184607;stroke-linecap:butt;stroke-linejoin:miter;stroke-miterlimit:4;stroke-dasharray:none;stroke-dashoffset:0;stroke-opacity:1;-inkscape-stroke:none"
       d="m 254.07221,196.27917 c 4.19269,0.99907 13.14886,-4.2529 17.05946,-5.5423 6.82317,-2.24975 8.21465,3.82931 13.34519,4.35426 3.59348,0.36768 9.04652,3.8094 10.29608,-4.253 0.57242,-3.69339 0.69191,-7.77141 -1.66758,-8.42991 -2.3595,-0.65849 -3.35045,-0.5929 -5.50406,-2.40949 -3.69798,-3.11927 2.85984,-8.58357 -3.1142,-11.09113 -6.71608,-2.81904 -10.04898,-3.99697 -12.74665,3.55007 -3.2973,9.22458 -5.07668,6.21524 -11.21624,8.36677 -1.3272,0.46509 -8.35654,2.07102 -9.72924,2.64418 -1.37269,0.57315 0.54911,2.21929 5.41931,5.28663 2.95062,1.85834 -3.72846,7.14591 -2.14207,7.52392 z"
       id="path9"
       sodipodi:nodetypes="ssssssssssss"
       inkscape:label="Upper right" /></g><g
     inkscape:groupmode="layer"
     id="layer11"
     inkscape:label="Skull"
     style="display:inline;opacity:1;fill:#000000"
     transform="matrix(0.69772966,0,0,0.69772966,41.540383,-199.02641)"><path
       style="display:inline;opacity:1;fill:#aca793;stroke-width:0.123233"
       d="m 12.698286,386.1099 c 1.485334,1.03009 3.027043,3.64012 6.819579,2.3405 6.043741,-2.07106 9.847436,-7.51629 12.333156,-12.21736 2.48573,-4.70108 3.653473,-8.65801 4.425314,-7.75246 1.18612,1.39159 -4.053504,13.08794 -7.058086,18.32599 -5.262748,9.17481 0.928566,12.44408 3.771069,11.60093 5.95357,-1.76597 3.481559,-15.86625 5.576632,-11.05184 3.379805,7.76659 4.643647,10.82166 11.117626,7.80281 3.763421,-1.7549 2.467717,-9.21362 0.54699,-10.46036 -1.294758,-0.84042 -10.466399,-7.89178 -11.727483,-12.89115 -0.612954,-2.42975 4.99663,-12.36513 10.240897,-4.88741 2.622134,3.73886 11.751709,7.11061 21.33206,8.05651 9.580354,0.9459 19.611486,-0.53404 24.036756,-6.49857 8.850554,-11.92906 2.86485,-21.15003 1.66245,-23.39625 -1.2024,-2.24622 -12.203331,-10.74458 -20.476253,-4.99553 -8.272924,5.74906 -25.234623,24.15081 -37.276132,21.68146 -11.211812,-2.29921 -10.681239,-1.85008 -20.358811,-5.57527 -8.524419,-3.2813 -10.5765789,9.93494 -10.4216389,12.41381 0,0 0.247275,6.73305 1.1274647,9.96221 0.7622752,2.79657 4.3284102,7.54198 4.3284102,7.54198 z m 32.284444,58.87565 c 0.488437,3.33437 -0.09071,13.06435 1.638509,14.53871 0,0 13.885798,2.69408 14.937379,0.24127 1.970151,-4.59541 0.371335,-13.13004 -2.470672,-17.44008 -1.337913,-2.029 -13.59293,-3.51851 -14.727407,-2.49058 -0.352103,1.7616 0.376609,3.43807 0.622191,5.15068 z m 16.819714,-1.21304 c 1.158062,3.52926 2.584799,10.61775 2.764891,15.91948 v 0 c 0,0 16.40453,2.46757 16.771354,-3.41782 0.346497,-5.55927 1.06192,-14.19709 -2.718496,-16.70414 -3.466693,-2.299 -11.954759,1.51861 -14.244174,1.70243 -2.952556,0.23707 -2.666781,-0.15093 -2.573575,2.50005 z m 44.334726,5.99677 c 0,0 3.1682,3.78539 6.74885,1.22413 3.58067,-2.56126 8.46016,-5.48274 11.10856,-10.01151 2.39737,-4.09951 2.09824,-2.95615 1.37061,-9.12031 -1.35525,-11.48106 -3.96213,-10.65163 -10.29398,-6.42623 -17.027544,10.76561 -14.02734,7.09436 -8.93404,24.33392 z M 7.516054,425.92734 c -0.352424,-3.13755 3.044552,-7.95875 5.448484,-11.14425 1.186846,-1.57271 -0.131283,-1.77036 -0.131283,-1.77036 C 7.36423,413.68118 2.4755099,401.24101 6.216959,393.24906 9.1625215,386.95717 5.1423164,376.06663 5.8033021,367.36531 6.0349915,364.31532 12.69778,345.36798 12.69778,345.36798 c 0.02364,-0.12948 1.673371,-9.108 7.17846,-19.88072 0,0 60.565274,4.35624 76.379386,7.59066 15.814134,3.23442 86.814754,8.20883 92.095544,12.73492 v 3e-5 c 2.8925,22.84349 -5.27082,44.97716 -21.13722,58.26863 -46.75056,39.16356 28.8488,18.37573 -25.97271,55.33883 -54.821494,36.96311 -34.76189,59.40147 -78.168288,51.31112 0,0 -7.326219,-0.4547 -26.798392,5.16404 -31.205897,9.00452 -24.182572,-23.6053 -17.231471,-38.79639 0,0 -16.312194,-16.66941 -5.031523,-19.01738 0,0 -5.411283,-10.09679 -6.345276,-17.37763 -0.4638692,-4.87435 -0.2961707,-9.82905 -0.150236,-14.77675 z m 73.87794,13.51538 c -0.466648,1.48068 0.434263,2.94899 0.793137,4.89917 0.344254,1.87074 1.268716,3.75769 1.132219,5.76061 -0.177494,2.6045 0.286837,4.84832 0.412362,6.96998 1.037794,1.67398 3.100074,0.71037 12.303624,-0.65795 4.024444,-0.59831 7.543604,-0.73305 8.377344,-2.98595 1.1345,-3.06563 -0.57448,-6.4602 -1.72561,-9.28775 -2.17018,-5.33063 -3.078049,-11.02483 -10.346074,-8.7503 -3.794938,1.18762 -9.921322,0.79769 -10.947002,4.05219 z m 3.451892,-3.62591 c 6.840725,-1.57166 10.291286,-2.30373 12.796197,-1.6628 4.742747,-0.20189 4.100267,-1.08367 7.520557,-3.28191 4.46719,-2.88792 10.49865,-8.1894 12.82676,-9.21853 2.32812,-1.02912 3.9527,-2.33433 3.9527,-2.33433 0,0 3.59965,-22.33536 1.21653,-21.54099 -1.52217,0.94785 -3.00112,1.96338 -4.47974,2.97721 -1.57308,1.08385 -2.33951,1.51919 -3.74254,3.41208 -1.11622,1.50598 -0.019,1.75564 0.50023,2.83664 1.60416,3.33974 2.43392,3.70941 3.17612,6.08678 0.40863,1.30893 -1.55199,3.52736 -2.97884,5.61564 -1.42685,2.08828 -7.42053,7.28267 -9.44875,8.23578 -3.60057,1.69199 -5.13503,0.34207 -7.254797,2.55331 -1.55295,2.18319 -14.135686,4.02676 -17.197775,4.10726 l -2.711153,0.37956 c -2.688229,1.82854 -9.552285,3.87428 -14.219941,3.90528 -4.30688,0.0286 -7.335899,-0.22068 -11.903569,-0.7666 -2.205949,-0.18571 -5.161907,-0.98389 -7.243047,-1.17095 l -5.657061,-1.06944 c -4.186681,-0.73994 -7.300323,-1.42239 -9.209195,-1.64869 l -8.145519,-1.35293 -5.130394,-0.48755 c -3.189567,0.2183 -10.9091247,-4.18521 -8.2280906,2.49704 0.5132489,1.27923 1.2721816,-1.06272 5.6199446,-1.18122 2.200786,0.11572 4.210934,0.19425 5.38242,0.34854 l 2.720195,0.40396 c 1.043444,0.2263 2.038789,0.401 2.91628,0.71248 0,0 5.048123,0.66641 7.572184,0.99962 12.883264,1.70075 5.596467,1.75533 16.628205,3.32917 0.432184,0.0632 10.908159,1.982 12.589134,1.84613 0.969047,-0.0783 2.405159,-0.6779 4.649612,-1.07771 4.298648,-0.76572 7.01884,-1.78766 9.019189,-1.80645 4.579094,-0.043 5.452705,-0.34492 8.464154,-1.64638 z m -54.5709,11.58973 c 0.804258,5.25239 0.929105,10.41584 1.639067,11.44425 0,0 10.682218,2.60499 11.592401,0.57675 0.661019,-1.47299 -0.06253,-8.62546 -0.09419,-12.14466 -0.02586,-2.87233 0.294277,-7.97122 -3.427188,-9.59187 -5.280338,-1.77332 -8.854415,-2.28012 -10.53513,-1.22707 -1.793513,1.12372 0.09337,6.16425 0.82504,10.9426 z m -9.637599,-13.5475 c -2.418516,-0.4215 -10.216494,-0.97633 -11.090995,2.21516 -0.874488,3.19149 -0.619124,6.56195 1.320273,11.4189 1.939392,4.85694 5.211186,10.78178 5.211186,10.78178 0,0 11.578061,2.21119 12.98112,0.50024 1.226267,-1.49534 -0.412369,-7.95841 -0.68641,-12.49648 -0.263664,-4.36615 -0.34597,-7.17157 -1.249374,-9.43443 -1.244946,-2.37077 -4.166212,-2.58091 -6.4858,-2.98517 z m 79.718543,-6.9426 c 2.62341,1.04614 9.41098,-3.41832 13.51227,-7.80757 2.27627,-2.43609 3.16466,-3.90988 3.07463,-5.50034 -0.09,-1.59047 -1.34963,-3.73892 -2.3512,-5.64045 -1.3916,-2.64195 -2.50163,-2.67502 -12.22541,0.77459 -7.507624,2.66341 -7.542054,2.88709 -6.395714,6.55821 l 2.494365,8.13724 c 0,0 0.877607,3.07418 1.891059,3.47832 z m -20.512987,5.35579 c 1.307336,0.99057 6.884623,-0.11178 9.601073,-0.69514 3.42299,-0.73504 8.13211,-1.39345 8.35233,-4.29572 0.28821,-3.79816 -0.39756,-4.73797 -1.86886,-9.32531 -1.60095,-4.99157 -2.40372,-6.31745 -3.91577,-5.90153 -3.96388,1.09039 -14.143818,1.94408 -14.143818,1.94408 -3.062082,0.0805 -3.884995,0.0476 -1.294631,5.45232 l 2.203647,6.69506 z m -19.988719,4.00968 c -0.150585,1.6497 8.935205,0.4444 13.960588,-1.41114 1.903587,-0.70287 3.670785,-0.96763 4.061459,-2.3916 0.390684,-1.42398 -0.237297,-4.40479 -0.543348,-6.52354 -0.626447,-4.33676 -2.930232,-8.86246 -4.489862,-10.34507 -2.837479,-2.69736 -14.473278,1.28748 -14.473278,1.28748 0.319966,1.20543 0.769929,3.88422 1.383521,8.41305 0,0 0.420045,7.47471 0.10092,10.97082 z m -15.820115,-2.67336 c 0.369212,0.77586 1.076542,0.53456 3.072276,1.13964 1.995721,0.60507 4.644378,0.86474 8.795316,1.48714 3.382855,0.50723 3.106609,-5.64569 2.629952,-8.98375 -0.369679,-2.58886 -0.216399,-8.38329 -2.53877,-10.29971 -2.688565,-2.21859 -9.385613,-2.23648 -11.600879,-1.04518 -2.215265,1.1913 -0.833171,2.99213 -0.725952,12.40793 z m -13.790303,-1.72406 c 0.684659,0.29362 9.322503,2.54431 11.317248,1.58322 1.672318,-0.80574 1.200227,-3.12847 0.935974,-5.82027 -0.264254,-2.69181 -0.942315,-5.81646 -0.835859,-8.13288 0.212911,-4.63285 0.907215,-4.00793 -1.423366,-4.65678 -5.032545,-1.4011 -9.114944,-0.92199 -10.48552,-0.18656 -2.266563,1.21621 -0.882682,3.43715 -0.958413,8.72043 -0.05123,3.57378 -1.531001,5.88559 -1.67257,7.82839 z m -5.485733,-1.05659 c 2.07933,0.39515 3.438685,-9.19469 2.625843,-13.09594 -0.592116,-2.84158 -0.347375,-3.29843 -2.416752,-3.60776 -2.06939,-0.3093 -6.452832,-0.47111 -8.886493,-0.54691 -3.526256,1.32061 -7.263538,8.66837 -6.647851,13.14076 0.526046,3.82121 7.048069,3.57053 9.281541,3.81876 2.233473,0.24824 6.043712,0.29109 6.043712,0.29109 z M 181.08619,322.73412 C 168.2612,295.35079 138.00866,276.0392 65.568837,289.79915 c -13.877886,2.63612 -22.841863,7.52127 -30.515603,15.07517 0,0 124.183246,4.82216 146.032956,17.8598 z"
       id="path13"
       sodipodi:nodetypes="csssssscssssssscccscsssscscssssscssccssccsssssscccsssssccsssssssssscsscscssssscccsscccccsccccsssssssccscssscssssssssccsccscsscsscccsssssscscssssscccsscssscccsscszcsccs"
       inkscape:label="Main" /></g><g
     inkscape:groupmode="layer"
     id="layer3"
     inkscape:label="Headband"
     style="opacity:1"
     transform="translate(-24.90673,-67.612559)"><path
       style="font-variation-settings:normal;opacity:1;vector-effect:none;fill:#800000;fill-opacity:1;stroke-width:0.264583;stroke-linecap:butt;stroke-linejoin:miter;stroke-miterlimit:4;stroke-dasharray:none;stroke-dashoffset:0;stroke-opacity:1;-inkscape-stroke:none"
       d="m 203.81341,113.4343 c 0.91168,0.62393 6.88271,1.99198 10.82138,-1.60303 1.80868,-1.65086 3.46197,4.11144 5.25131,11.10148 2.21075,8.63622 9.82323,13.00037 9.17499,16.23875 -0.63114,3.15292 -6.34629,20.51754 -10.22067,3.27383 -4.87799,-21.71052 -14.32625,-25.08029 -15.02701,-29.01103 z"
       id="path12"
       sodipodi:nodetypes="cssssc"
       inkscape:label="End (left)" /><path
       style="font-variation-settings:normal;vector-effect:none;fill:#800000;fill-opacity:1;stroke-width:0.264583;stroke-linecap:butt;stroke-linejoin:miter;stroke-miterlimit:4;stroke-dasharray:none;stroke-dashoffset:0;stroke-opacity:1;-inkscape-stroke:none"
       d="m 217.79284,109.53049 c 0,0 1.16561,-1.98761 0.53098,-8.00049 -0.32067,-3.038324 9.60402,6.83111 12.80718,13.29657 3.9575,7.98811 13.9877,8.81496 14.02668,12.11735 0.019,1.60763 -2.33052,6.72191 -3.67358,10.94987 -0.60425,1.90218 -2.67241,2.66851 -5.1568,-4.90942 -2.397,-7.31142 -21.10643,-19.85093 -18.53446,-23.45388 z"
       id="path12-9"
       sodipodi:nodetypes="csssssc"
       inkscape:label="End (right)" /><path
       style="font-variation-settings:normal;display:inline;opacity:1;vector-effect:none;fill:#800000;fill-opacity:1;stroke-width:0.264583;stroke-linecap:butt;stroke-linejoin:miter;stroke-miterlimit:4;stroke-dasharray:none;stroke-dashoffset:0;stroke-opacity:1;-inkscape-stroke:none"
       d="m 200.2193,109.34153 c 0,0 4.49046,5.59964 10.20654,3.03739 3.72785,-1.67102 6.76456,-2.57912 6.0225,-6.21587 -0.7421,-3.63675 2.69069,-4.89457 -3.3369,-4.77549 -7.01516,0.13858 -9.71374,-0.68453 -11.55506,2.24335 -1.84133,2.92789 -2.27793,0.82172 -1.33708,5.71062 z"
       id="path14"
       sodipodi:nodetypes="cssssc"
       inkscape:label="Knot (lower)" /><path
       style="font-variation-settings:normal;display:inline;opacity:1;vector-effect:none;fill:#800000;fill-opacity:1;stroke-width:0.264583;stroke-linecap:butt;stroke-linejoin:miter;stroke-miterlimit:4;stroke-dasharray:none;stroke-dashoffset:0;stroke-opacity:1;-inkscape-stroke:none"
       d="m 199.04221,103.03603 c 0,0 1.6238,-4.262269 8.65163,-3.787511 7.02783,0.474748 10.43035,2.121431 8.09579,-1.671467 -2.33457,-3.79291 -10.47084,-7.99394 -13.88178,-4.362463 -3.41094,3.631479 -4.47361,1.6247 -3.93347,5.134454 0.54014,3.509777 1.06783,4.686987 1.06783,4.686987 z"
       id="path15"
       inkscape:label="Knot (upper)" /><path
       style="font-variation-settings:normal;opacity:1;vector-effect:none;fill:#800000;fill-opacity:1;stroke-width:0.264583;stroke-linecap:butt;stroke-linejoin:miter;stroke-miterlimit:4;stroke-dasharray:none;stroke-dashoffset:0;stroke-opacity:1;-inkscape-stroke:none"
       d="m 81.680266,94.095848 c 0,0 3.838263,-8.797658 7.897199,-11.037181 0.72308,-0.398962 25.241475,0.784744 48.879195,2.910867 23.63772,2.126124 47.89384,5.445034 53.00747,8.561322 5.11364,3.11629 4.56894,5.869454 5.47817,9.295204 0.73724,2.77772 3.3302,5.43171 -6.70227,2.87363 -2.59558,-0.66182 -24.33571,-3.39869 -52.58311,-6.763573 -25.83737,-3.077794 -53.197281,-6.17719 -55.976654,-5.840269 z"
       id="path10"
       sodipodi:nodetypes="cssssssc"
       inkscape:label="Main" /></g><metadata
     id="metadata1"><rdf:RDF><cc:Work
         rdf:about=""><dc:creator><cc:Agent><dc:title>bearoforange</dc:title></cc:Agent></dc:creator><dc:rights><cc:Agent><dc:title>bearoforange</dc:title></cc:Agent></dc:rights><dc:publisher><cc:Agent><dc:title>bearoforange</dc:title></cc:Agent></dc:publisher><dc:title>bearoforange (classic logo)</dc:title><dc:description>v. 1.0.0</dc:description></cc:Work></rdf:RDF></metadata></svg>
