<?xml version="1.0" encoding="UTF-8" standalone="no"?>
<!-- Created with Inkscape (http://www.inkscape.org/) -->

<svg
   width="888.42151"
   height="696.04114"
   viewBox="0 0 235.06152 184.16088"
   version="1.1"
   id="svg1"
   xml:space="preserve"
   inkscape:version="1.4.2 (ebf0e940d0, 2025-05-08)"
   sodipodi:docname="complete.svg"
   inkscape:export-filename="complete.png"
   inkscape:export-xdpi="96"
   inkscape:export-ydpi="96"
   xmlns:inkscape="http://www.inkscape.org/namespaces/inkscape"
   xmlns:sodipodi="http://sodipodi.sourceforge.net/DTD/sodipodi-0.dtd"
   xmlns="http://www.w3.org/2000/svg"
   xmlns:svg="http://www.w3.org/2000/svg"
   xmlns:rdf="http://www.w3.org/1999/02/22-rdf-syntax-ns#"
   xmlns:cc="http://creativecommons.org/ns#"
   xmlns:dc="http://purl.org/dc/elements/1.1/"><title
     id="title1">bearoforange (complete logo)</title><sodipodi:namedview
     id="namedview1"
     pagecolor="#ffffff"
     bordercolor="#000000"
     borderopacity="0.25"
     inkscape:showpageshadow="2"
     inkscape:pageopacity="0.0"
     inkscape:pagecheckerboard="false"
     inkscape:deskcolor="#d1d1d1"
     inkscape:document-units="mm"
     inkscape:zoom="0.68210865"
     inkscape:cx="432.48242"
     inkscape:cy="311.53395"
     inkscape:window-width="1916"
     inkscape:window-height="1044"
     inkscape:window-x="0"
     inkscape:window-y="0"
     inkscape:window-maximized="1"
     inkscape:current-layer="layer3"
     showgrid="true"
     showguides="true"
     inkscape:export-bgcolor="#ffffff00"><inkscape:grid
       id="grid5"
       units="mm"
       originx="-94.831428"
       originy="-196.88932"
       spacingx="0.99999998"
       spacingy="1"
       empcolor="#0099e5"
       empopacity="0.30196078"
       color="#0099e5"
       opacity="0.14901961"
       empspacing="5"
       enabled="false"
       visible="false"
       dotted="true" /></sodipodi:namedview><defs
     id="defs1" /><g
     inkscape:groupmode="layer"
     id="layer1"
     inkscape:label="Bones"
     style="display:inline;fill:#000000"
     transform="translate(-89.345369,-79.200274)"><path
       style="font-variation-settings:normal;display:inline;opacity:1;vector-effect:none;fill:#000000;fill-opacity:1;stroke-width:0.184607;stroke-linecap:butt;stroke-linejoin:miter;stroke-miterlimit:4;stroke-dasharray:none;stroke-dashoffset:0;stroke-opacity:1;-inkscape-stroke:none"
       d="m 129.91496,209.49 c 0,0 -5.0551,-0.13362 -10.89615,1.12189 -5.84106,1.25551 -10.97394,5.06942 -15.61188,9.45666 -5.410279,5.11783 -16.450179,-6.94563 -13.598819,-10.23567 2.85137,-3.29004 10.08945,-3.07071 4.31361,-10.82057 -5.77585,-7.74987 1.02356,-12.13658 3.65559,-12.2097 7.028209,-0.19524 11.551689,11.55169 16.523299,10.89368 4.97161,-0.658 24.64458,-6.28427 27.31941,-4.01013 1.62229,1.37927 3.51059,3.86817 3.15839,5.63974 -0.3522,1.77156 -2.62071,5.03151 -3.71895,6.4538 -3.92623,5.08472 -6.3681,3.50766 -11.1445,3.7103 z"
       id="path8"
       inkscape:label="Bottom left"
       sodipodi:nodetypes="csssssssssc" /><path
       style="font-variation-settings:normal;opacity:1;vector-effect:none;fill:#000000;fill-opacity:1;stroke-width:0.184607;stroke-linecap:butt;stroke-linejoin:miter;stroke-miterlimit:4;stroke-dasharray:none;stroke-dashoffset:0;stroke-opacity:1;-inkscape-stroke:none"
       d="m 145.11415,163.01355 c -0.31019,3.46376 0.0517,10.59807 -4.18753,5.63507 -4.23923,-4.96301 -14.83731,-15.35429 -19.80031,-14.68222 -4.96301,0.67208 -16.69844,3.56716 -15.81958,-3.92904 0.87887,-7.49621 -0.51697,-17.11202 7.5479,-13.02788 8.06488,4.08414 0.93057,-12.5626 8.68526,-13.18298 7.75469,-0.62038 13.38977,2.27471 12.40751,10.28789 -0.98227,8.01319 -3.72226,10.59808 2.73999,14.57882 6.46224,3.98074 9.35732,5.99697 10.44298,7.23771 3.06466,3.50247 -1.50231,1.34403 -2.01622,7.08263 z"
       id="path7"
       sodipodi:nodetypes="ssssssssss"
       inkscape:label="Upper left" /><path
       style="font-variation-settings:normal;display:inline;vector-effect:none;fill:#000000;fill-opacity:1;stroke-width:0.184607;stroke-linecap:butt;stroke-linejoin:miter;stroke-miterlimit:4;stroke-dasharray:none;stroke-dashoffset:0;stroke-opacity:1;-inkscape-stroke:none"
       d="m 209.49771,219.15781 c 2.93013,-2.10862 6.88487,-4.89273 9.71078,-1.89058 4.47372,4.75273 13.50979,12.65713 18.81592,15.92423 4.26471,2.62588 15.96258,-0.93581 17.70571,5.14427 2.08004,7.25527 -2.75501,16.90308 -10.54078,12.30914 -7.78576,-4.59394 -1.94209,14.38079 -9.51443,12.59762 -6.95137,-1.63694 -13.21592,-3.13043 -11.72077,-11.06393 1.49515,-7.9335 4.39558,-10.33698 -1.7975,-14.72475 -6.19309,-4.38778 -13.15032,-9.91999 -14.24725,-11.15078 -1.95439,-2.19292 -2.98667,-3.85292 1.58832,-7.14522 z"
       id="path7-3"
       sodipodi:nodetypes="ssssssssss"
       inkscape:label="Bottom right" /><path
       style="font-variation-settings:normal;opacity:1;vector-effect:none;fill:#000000;fill-opacity:1;stroke-width:0.184607;stroke-linecap:butt;stroke-linejoin:miter;stroke-miterlimit:4;stroke-dasharray:none;stroke-dashoffset:0;stroke-opacity:1;-inkscape-stroke:none"
       d="m 248.68035,200.25521 c 3.86601,1.90546 13.76507,-1.22579 17.86439,-1.61429 7.15245,-0.67785 7.15878,5.55842 12.04452,7.20994 3.42203,1.15674 7.97429,5.7238 10.98359,-1.85959 1.37856,-3.47396 2.40094,-7.42355 0.24668,-8.58973 -2.15427,-1.16617 -3.13503,-1.32234 -4.8313,-3.57195 -2.91268,-3.86279 4.69512,-7.73383 -0.57264,-11.5058 -5.92207,-4.2405 -8.91003,-6.12936 -13.21678,0.62987 -5.26405,8.26165 -6.33048,4.93223 -12.79458,5.66618 -1.39736,0.15865 -8.60781,0.16298 -10.07353,0.41689 -1.46571,0.2539 0.0424,2.28582 4.10955,6.35837 2.46409,2.46736 -5.22268,6.13915 -3.7599,6.86011 z"
       id="path9"
       sodipodi:nodetypes="ssssssssssss"
       inkscape:label="Upper right" /></g><g
     inkscape:groupmode="layer"
     id="layer11"
     inkscape:label="Skull"
     style="display:inline;opacity:1;fill:#000000"
     transform="matrix(0.69772966,0,0,0.69772966,51.657959,-193.89906)"><path
       style="display:inline;opacity:1;fill:#000000;stroke-width:0.123233"
       d="m 202.15501,359.84895 c -2.25416,22.91528 -15.13024,42.68257 -33.55275,52.11744 -54.28221,27.80002 24.04608,24.32501 -37.61662,48.1867 -61.66269,23.86169 -47.088666,50.19543 -87.6134,32.66503 0,0 -7.04217,-2.07077 -27.27597,-0.91791 -32.42647,1.84755 -18.3347602,-28.38738 -8.1828202,-41.65483 0,0 -12.20174,-19.87648 -0.68134,-19.65993 0,0 -3.03321,-11.04657 -2.32652,-18.35298 0.7067,-7.3064 4.59354,-7.39237 8.8337302,-6.18896 4.24019,1.20341 7.76992,2.09239 5.33383,2.3963 -2.43609,0.3039 -9.7443602,-3.2214 -11.3059602,-0.30391 -1.56159,2.9175 -2.06131,6.26047 -1.24928,11.42689 0.81203,5.1664 2.68595,11.67 2.68595,11.67 0,0 10.7976002,4.72786 12.5456702,3.37133 1.5278,-1.18558 1.56477,-7.84588 2.30565,-12.33144 0.71281,-4.31564 1.43299,-7.20361 0.2846,-9.35254 -1.14838,-2.14895 -4.96114,-3.97384 -3.62182,-4.12598 1.77302,-0.20141 4.48105,1.3487 5.25292,3.11101 0.9894,2.25897 -2.38196,21.08609 -1.45441,23.40695 0,0 9.83666,4.91283 11.17465,3.13745 0.97171,-1.28935 1.85507,-8.42385 2.60595,-11.86216 0.61284,-2.80631 2.05763,-7.70669 -1.21085,-10.11352 -3.26848,-2.40681 -7.39798,-1.91803 -8.41791,-3.06498 -1.10432,-1.24183 -0.1534,-2.24875 2.65012,-0.83261 3.92013,1.98018 6.45394,2.18547 7.98379,3.7548 1.76988,1.81555 1.26468,5.46525 1.0364,8.36524 -0.26444,3.35957 -2.99052,12.71779 -1.63202,14.53944 0,0 12.94041,5.71133 14.51058,3.55339 2.94174,-4.04295 3.27873,-12.7195 1.46515,-17.55317 -1.08474,-2.89111 -12.11417,-4.86104 -12.29587,-6.33622 -0.23262,-1.88843 8.37226,2.48191 10.82261,3.14968 3.28356,0.89482 3.40172,0.94897 3.79849,5.20044 0.34517,3.69832 0.16162,10.92665 -0.8405,16.13592 v 0 c 0,0 14.0796,5.45075 17.111554,0.39312 3.09181,-5.15746 5.2119,-14.05408 1.06004,-16.89068 -3.43465,-2.3466 -11.969684,-1.50426 -14.266464,-1.50426 -2.88418,0 -5.75194,-1.72441 3.35681,-1.28937 8.722684,0.41661 11.395514,-0.85958 13.206424,3.2664 1.58236,3.60523 2.27447,6.94228 0.61837,10.87364 -1.01346,2.40579 -1.47037,4.75768 -1.81928,6.85421 0.64001,1.86269 2.86482,1.38127 12.14238,2.09159 4.0568,0.31061 7.51796,0.96098 8.83133,-1.05043 1.78714,-2.73702 0.87492,-6.42641 0.38066,-9.43902 -0.93183,-5.67953 -0.53371,-10.54004 -8.14381,-10.82993 -4.76625,-0.18156 -7.88951,0.82766 -9.12625,1.07115 -3.82214,0.75247 0.44774,-2.31817 1.72371,-2.32046 9.36103,-0.0171 12.49154,0.0743 14.83756,2.82622 2.41486,2.83269 2.4709,9.01535 2.8224,15.50724 0,0 2.248166,4.39459 6.308306,2.69272 4.06016,-1.70187 9.46671,-3.46644 13.05495,-7.29375 3.24812,-3.46454 2.70249,-2.4162 3.36233,-8.58798 1.22898,-11.49526 -1.49702,-11.26564 -8.60929,-8.55235 -9.04164,3.44933 -12.698,5.89937 -14.319836,6.64035 -0.86427,0.39488 -0.65583,-0.79467 -0.12891,-1.63189 0.37588,-0.59723 1.08148,-0.99689 3.580036,-1.90862 4.9971,-1.82344 12.05552,-5.65265 14.55407,-6.13891 2.49856,-0.48624 4.308,-0.78985 4.37248,-1.39796 0.63667,-6.00516 7.82969,-19.0425 5.9712,-20.73256 h -3e-5 c 0,0 -1.36315,0.44643 -5.02914,1.90771 -1.77454,0.70733 -2.61852,0.96154 -4.40698,2.49547 -1.42287,1.2204 -0.40852,1.70755 -0.14239,2.87689 0.8222,3.61264 1.54911,4.15739 1.74466,6.64023 0.10766,1.367 -2.29677,3.09448 -4.15186,4.81363 -1.85508,1.71915 -9.01039,4.98554 -11.04215,5.93109 -2.03176,0.94553 -4.505186,0.38681 -5.035216,-0.73064 -0.53001,-1.11746 0.44169,-2.10597 2.208436,-0.73064 1.76674,1.37532 7.08419,-1.10127 12.05803,-4.46981 2.76054,-1.86958 3.95412,-3.10921 4.21964,-4.67993 0.26552,-1.57073 -0.48535,-3.9453 -1.0395,-6.02181 -0.76995,-2.88507 -1.8449,-3.16389 -12.09203,-1.96049 -7.911686,0.92915 -7.994946,1.13959 -7.692736,4.97363 0.30443,3.86209 2.05882,11.01708 -0.24046,14.22876 -1.3782,1.92514 -14.82381,1.36796 -17.82728,0.76625 -1.14212,-0.22881 -0.27605,-3.77232 1.50174,-1.65468 1.05463,1.25623 3.80885,1.04481 6.58701,1.07945 3.50075,0.0437 8.23847,0.44781 9.0979,-2.33303 1.12472,-3.63924 0.66485,-4.7079 0.24933,-9.50746 -0.45214,-5.22249 -0.94032,-6.69357 -2.50699,-6.62392 -4.10706,0.18262 -14.22229,-1.24637 -14.22229,-1.24637 -3.00346,-0.60171 -3.7985,-0.81661 -2.47345,5.02851 1.32506,5.84513 0.95216,14.27599 -0.96098,15.02533 -3.02725,1.18569 -10.007124,1.09806 -14.612244,0.33593 -2.45793,-0.40678 -3.99066,-0.56107 -3.78179,-1.41036 0.6871,-2.79384 1.86258,-0.2223 3.48463,0.18178 3.04466,0.75847 4.44351,0.98202 9.755524,0.28915 2.01216,-0.26245 3.79402,-0.12804 4.49125,-1.42965 0.69724,-1.30161 0.7471,-4.34745 0.91935,-6.48125 0.35256,-4.36756 -0.88834,-9.29194 -2.07966,-11.08396 -2.1674,-3.26028 -14.397664,-1.95975 -14.397664,-1.95975 0.0442,1.24639 -0.11214,3.95821 -0.5199,8.51019 -0.40318,4.50074 -1.59073,9.72497 -3.1461,11.49647 -1.02036,1.16216 -3.86474,-0.77362 -6.16152,-1.50426 -2.10958,-0.6711 -4.81438,-2.10596 -6.80197,-2.75065 -1.98758,-0.64468 -1.5459,-1.4183 -1.06005,-2.6432 0.48586,-1.2249 0.9309,0.76034 2.74236,1.79363 1.81145,1.03328 4.33625,1.87482 8.24522,3.40375 3.18566,1.24602 4.28311,-4.81454 4.55987,-8.17508 0.21464,-2.6063 1.65125,-8.22191 -0.18739,-10.60633 -2.12856,-2.76039 -8.65431,-4.2655 -11.07886,-3.59606 -2.42455,0.66944 -1.47702,2.7323 -3.46408,11.93666 -0.34457,1.59611 -2.50697,6.65302 -5.03523,5.58727 -3.91771,-1.65147 -6.80196,-3.00853 -8.61287,-3.65321 -1.81091,-0.64469 -2.49727,-3.61481 -0.0446,-1.82985 0.60233,0.43837 5.83331,3.98713 9.31736,3.64934 3.69528,-0.35827 3.13865,-8.3093 4.37537,-12.7791 1.23672,-4.4698 1.77486,-3.70627 -0.35336,-4.85661 -4.59557,-2.48402 -8.6824,-2.92373 -10.1821,-2.51113 -2.4801,0.68234 -1.62416,3.15519 -2.8716,8.28965 -0.84383,3.47311 -2.80016,5.39845 -3.36976,7.26126 -0.47757,1.56181 -3.39645,0.17812 -4.51278,-0.35211 -1.95387,-0.92807 -0.61183,-2.28731 2.41358,-0.96588 1.9396,0.84718 5.27738,-7.79041 5.35146,-11.77475 0.0539,-2.90212 0.39401,-3.29319 -1.55495,-4.05448 -1.94898,-0.76126 -6.18696,-1.89275 -8.54298,-2.50726 -3.73151,0.5043 -9.00763,6.83829 -9.4008102,11.3357 -0.33593,3.84259 4.1590102,4.37928 8.5263202,5.10563 4.354,0.72413 -1.68653,1.24602 -1.68653,1.24602 0,0 -5.7504,-1.40241 -6.8987902,-2.60582 -1.14838,-1.2034 -1.98758,-1.80511 -1.63423,-4.94257 0.35334,-3.13745 4.7364202,-7.08359 7.7879102,-9.6555 1.50655,-1.26977 0.26526,-1.75529 0.26526,-1.75529 -5.48087,-0.56313 -7.4840202,-13.77845 -2.06074,-20.73961 10.34093,-13.2733 6.0616,-0.87477 14.03455,-1.72414 6.3528,-0.67677 11.27105,-5.14101 14.73895,-9.17246 3.46791,-4.03145 5.48546,-7.63012 6.03686,-6.57574 0.84736,1.62031 -6.85955,11.86051 -10.95263,16.30026 -7.16933,7.77653 -1.85893,12.33944 1.09985,12.14878 6.19711,-0.39934 6.91906,-14.69645 7.89233,-9.53694 1.57011,8.32333 2.12373,11.58282 9.10656,10.0775 4.05922,-0.87505 4.45275,-8.43524 2.85696,-10.0775 -1.07572,-1.10704 -8.45184,-10.01959 -8.57087,-15.17418 -0.0579,-2.50521 7.61855,-10.94626 11.07071,-2.49042 1.72608,4.22792 9.878564,9.54345 19.009434,12.59387 9.13087,3.05043 19.24013,3.83575 24.879786,-0.99674 11.27931,-9.66498 7.49148,-19.98521 6.81809,-22.44241 -0.67339,-2.4572 -9.51166,-13.18695 -18.854966,-9.41926 -9.34331,3.7677 -29.968944,17.94186 -41.161064,12.85933 -10.42095,-4.73232 -10.0034,-4.17656 -18.61168,-9.95842 -7.58254,-5.09291 -11.51233,7.4866 -11.91191,9.93795 -1.74022,10.6762 -4.85226,-2.57785 -4.85226,-2.57785 -0.98535,-1.69275 14.32638,-19.01679 14.32638,-19.01679 0.05181,-0.12099 3.65479,-8.50872 11.41536,-17.7894 0,0 58.08439,17.70121 72.78491,24.36773 14.70053,6.66652 82.82223,27.28854 86.96566,32.87461 z m -1.95681,-24.11596 c -6.4217,-29.54808 -31.62857,-55.0974 -105.315106,-57.77283 -14.116733,-0.51254 -23.941923,2.25932 -33.101942,7.91987 0,0 120.009388,32.28742 138.417048,49.85296 z"
       id="path13"
       sodipodi:nodetypes="ccsssssccccsssssssccscssssssscssssssssssssssssssssccsssssssssssssssssccssscssscsscsssssssssssssssssssssssscsscssssscssssscsssssssscssssssscccssssccscc"
       inkscape:label="Main" /></g><g
     inkscape:groupmode="layer"
     id="layer3"
     inkscape:label="Headband"
     style="opacity:1"
     transform="translate(-14.789154,-62.485211)"><path
       style="font-variation-settings:normal;opacity:1;vector-effect:none;fill:#000000;fill-opacity:1;stroke-width:0.264583;stroke-linecap:butt;stroke-linejoin:miter;stroke-miterlimit:4;stroke-dasharray:none;stroke-dashoffset:0;stroke-opacity:1;-inkscape-stroke:none"
       d="m 212.5044,124.45993 c 0.7503,0.81086 6.26825,3.47112 10.9071,0.84086 2.13021,-1.20784 2.46217,4.77775 2.65406,11.99062 0.23708,8.91154 6.68993,14.85767 5.33852,17.87114 -1.31576,2.93395 -10.74545,18.59517 -10.69255,0.92164 0.0666,-22.25167 -8.39705,-27.63606 -8.20713,-31.62426 z"
       id="path12"
       sodipodi:nodetypes="cssssc"
       inkscape:label="End (left)" /><path
       style="font-variation-settings:normal;vector-effect:none;fill:#000000;fill-opacity:1;stroke-width:0.264583;stroke-linecap:butt;stroke-linejoin:miter;stroke-miterlimit:4;stroke-dasharray:none;stroke-dashoffset:0;stroke-opacity:1;-inkscape-stroke:none"
       d="m 227.00174,123.75901 c 0,0 1.57801,-1.67902 2.29492,-7.68265 0.36227,-3.03364 7.84662,8.79385 9.53353,15.80931 2.08417,8.66764 11.68009,11.70192 10.98451,14.93046 -0.33861,1.57168 -3.76548,6.03627 -6.01417,9.86025 -1.0117,1.72043 -3.19842,2.0082 -3.93739,-5.93228 -0.71298,-7.66121 -16.16946,-24.04349 -12.8614,-26.98509 z"
       id="path12-9"
       sodipodi:nodetypes="csssssc"
       inkscape:label="End (right)" /><path
       style="font-variation-settings:normal;display:inline;opacity:1;vector-effect:none;fill:#000000;fill-opacity:1;stroke-width:0.264583;stroke-linecap:butt;stroke-linejoin:miter;stroke-miterlimit:4;stroke-dasharray:none;stroke-dashoffset:0;stroke-opacity:1;-inkscape-stroke:none"
       d="m 209.90924,119.67103 c 0,0 3.13438,6.45724 9.27682,5.22876 4.0059,-0.80118 7.16846,-1.01202 7.2528,-4.72275 0.0843,-3.71073 3.71073,-4.17457 -2.19271,-5.39742 -6.87067,-1.42321 -9.31899,-2.82521 -11.76469,-0.37951 -2.44572,2.44571 -2.40355,0.29517 -2.57222,5.27092 z"
       id="path14"
       sodipodi:nodetypes="cssssc"
       inkscape:label="Knot (lower)" /><path
       style="font-variation-settings:normal;display:inline;opacity:1;vector-effect:none;fill:#000000;fill-opacity:1;stroke-width:0.264583;stroke-linecap:butt;stroke-linejoin:miter;stroke-miterlimit:4;stroke-dasharray:none;stroke-dashoffset:0;stroke-opacity:1;-inkscape-stroke:none"
       d="m 210.16225,113.2616 c 0,0 2.53004,-3.79507 9.27682,-1.77103 6.74678,2.02403 9.6985,4.3854 8.26481,0.16867 -1.43369,-4.21674 -8.43348,-10.12018 -12.56588,-7.33713 -4.13241,2.78305 -4.72275,0.59035 -4.97575,4.1324 -0.25301,3.54207 0,4.80709 0,4.80709 z"
       id="path15"
       inkscape:label="Knot (upper)" /><path
       style="font-variation-settings:normal;opacity:1;vector-effect:none;fill:#000000;fill-opacity:1;stroke-width:0.264583;stroke-linecap:butt;stroke-linejoin:miter;stroke-miterlimit:4;stroke-dasharray:none;stroke-dashoffset:0;stroke-opacity:1;-inkscape-stroke:none"
       d="m 97.718496,78.474307 c 0,0 5.696654,-7.72523 10.151664,-9.007157 0.79364,-0.228371 24.4365,6.372212 47.01135,13.696037 22.57485,7.323825 45.48769,15.948006 49.78131,20.122363 4.29363,4.17436 3.15096,6.73774 3.27649,10.27987 0.10178,2.87209 2.04041,6.03576 -7.17316,1.31301 -2.38372,-1.22186 -22.97271,-8.71965 -49.7669,-18.275263 -24.50814,-8.740342 -50.49598,-17.83996 -53.280754,-18.12886 z"
       id="path10"
       sodipodi:nodetypes="cssssssc"
       inkscape:label="Main" /></g><metadata
     id="metadata1"><rdf:RDF><cc:Work
         rdf:about=""><dc:creator><cc:Agent><dc:title>bearoforange</dc:title></cc:Agent></dc:creator><dc:rights><cc:Agent><dc:title>bearoforange</dc:title></cc:Agent></dc:rights><dc:publisher><cc:Agent><dc:title>bearoforange</dc:title></cc:Agent></dc:publisher><dc:title>bearoforange (complete logo)</dc:title><dc:description>v. 1.0.0</dc:description></cc:Work></rdf:RDF></metadata></svg>
