<?xml version="1.0" encoding="UTF-8" standalone="no"?>
<!-- Created with Inkscape (http://www.inkscape.org/) -->

<svg
   width="832.44495"
   height="666.15778"
   viewBox="0 0 220.25105 176.25424"
   version="1.1"
   id="svg1"
   xml:space="preserve"
   inkscape:version="1.4.2 (ebf0e940d0, 2025-05-08)"
   sodipodi:docname="tilted.svg"
   inkscape:export-filename="complete.png"
   inkscape:export-xdpi="96"
   inkscape:export-ydpi="96"
   xmlns:inkscape="http://www.inkscape.org/namespaces/inkscape"
   xmlns:sodipodi="http://sodipodi.sourceforge.net/DTD/sodipodi-0.dtd"
   xmlns="http://www.w3.org/2000/svg"
   xmlns:svg="http://www.w3.org/2000/svg"
   xmlns:rdf="http://www.w3.org/1999/02/22-rdf-syntax-ns#"
   xmlns:cc="http://creativecommons.org/ns#"
   xmlns:dc="http://purl.org/dc/elements/1.1/"><title
     id="title1">bearoforange (tilted logo)</title><sodipodi:namedview
     id="namedview1"
     pagecolor="#ffffff"
     bordercolor="#000000"
     borderopacity="0.25"
     inkscape:showpageshadow="2"
     inkscape:pageopacity="0.0"
     inkscape:pagecheckerboard="false"
     inkscape:deskcolor="#d1d1d1"
     inkscape:document-units="mm"
     inkscape:zoom="0.48232365"
     inkscape:cx="432.28235"
     inkscape:cy="457.16191"
     inkscape:window-width="1916"
     inkscape:window-height="1044"
     inkscape:window-x="0"
     inkscape:window-y="0"
     inkscape:window-maximized="1"
     inkscape:current-layer="svg1"
     showgrid="true"
     showguides="true"
     inkscape:export-bgcolor="#ffffff00"><inkscape:grid
       id="grid5"
       units="mm"
       originx="-104.949"
       originy="-202.01666"
       spacingx="0.99999998"
       spacingy="1"
       empcolor="#0099e5"
       empopacity="0.30196078"
       color="#0099e5"
       opacity="0.14901961"
       empspacing="5"
       enabled="false"
       visible="false"
       dotted="true" /></sodipodi:namedview><defs
     id="defs1" /><g
     inkscape:groupmode="layer"
     id="layer1"
     inkscape:label="Bones"
     style="display:inline;fill:#000000"
     transform="translate(-99.462945,-84.327622)"><path
       style="font-variation-settings:normal;display:inline;opacity:1;vector-effect:none;fill:#000000;fill-opacity:1;stroke-width:0.184607;stroke-linecap:butt;stroke-linejoin:miter;stroke-miterlimit:4;stroke-dasharray:none;stroke-dashoffset:0;stroke-opacity:1;-inkscape-stroke:none"
       d="m 140.32552,231.66547 c 0,0 -4.95848,0.99265 -10.3747,3.5143 -5.41623,2.52166 -9.57365,7.38049 -13.12115,12.68837 -4.13824,6.19179 -17.582055,-3.11789 -15.53278,-6.95913 2.04929,-3.84123 9.15525,-5.23523 1.80218,-11.50843 -7.353075,-6.27321 -1.698,-12.06072 0.85203,-12.71669 6.80924,-1.75159 13.82913,8.69701 18.53036,6.95106 4.70123,-1.74594 22.63288,-11.60174 25.74605,-9.9786 1.88814,0.98444 4.28214,2.99169 4.33227,4.79724 0.0501,1.80553 -1.43754,5.48796 -2.1924,7.11867 -2.69863,5.82984 -5.42981,4.83462 -10.04186,6.09321 z"
       id="path8"
       inkscape:label="Bottom left"
       sodipodi:nodetypes="csssssssssc" /><path
       style="font-variation-settings:normal;opacity:1;vector-effect:none;fill:#000000;fill-opacity:1;stroke-width:0.184607;stroke-linecap:butt;stroke-linejoin:miter;stroke-miterlimit:4;stroke-dasharray:none;stroke-dashoffset:0;stroke-opacity:1;-inkscape-stroke:none"
       d="m 144.8208,182.97391 c 0.46699,3.44612 2.40464,10.32179 -2.83114,6.42449 -5.23579,-3.89732 -17.87737,-11.67475 -22.56708,-9.91701 -4.68972,1.75776 -15.48884,7.18739 -16.29712,-0.31675 -0.80828,-7.50415 -4.305275,-16.56964 4.46534,-14.37905 8.77062,2.19058 -1.8833,-12.45545 5.53983,-14.78293 7.42313,-2.32749 13.56053,-0.75649 14.38284,7.27468 0.8223,8.03118 -1.27503,11.16014 5.91003,13.60592 7.18505,2.44577 10.45568,3.76852 11.78983,4.7371 3.76612,2.73418 -1.16621,1.64417 -0.39253,7.35355 z"
       id="path7"
       sodipodi:nodetypes="ssssssssss"
       inkscape:label="Upper left" /><path
       style="font-variation-settings:normal;display:inline;vector-effect:none;fill:#000000;fill-opacity:1;stroke-width:0.184607;stroke-linecap:butt;stroke-linejoin:miter;stroke-miterlimit:4;stroke-dasharray:none;stroke-dashoffset:0;stroke-opacity:1;-inkscape-stroke:none"
       d="m 220.0675,223.41343 c 2.38852,-2.70683 5.626,-6.29988 9.0482,-4.00047 5.4177,3.6402 15.98387,9.33986 21.88317,11.34665 4.74147,1.61292 15.35589,-4.45832 18.40608,1.08264 3.63974,6.61194 1.06863,17.09275 -7.5431,14.3431 -8.61173,-2.74965 1.30094,14.4529 -6.47832,14.39638 -7.14131,-0.0519 -13.58111,-0.11646 -13.88564,-8.18388 -0.30453,-8.06741 1.98953,-11.05513 -5.02351,-13.95756 -7.01305,-2.90244 -15.02536,-6.75097 -16.36829,-7.70734 -2.39269,-1.70399 -3.76793,-3.0932 -0.0386,-7.31952 z"
       id="path7-3"
       sodipodi:nodetypes="ssssssssss"
       inkscape:label="Bottom right" /><path
       style="font-variation-settings:normal;opacity:1;vector-effect:none;fill:#000000;fill-opacity:1;stroke-width:0.184607;stroke-linecap:butt;stroke-linejoin:miter;stroke-miterlimit:4;stroke-dasharray:none;stroke-dashoffset:0;stroke-opacity:1;-inkscape-stroke:none"
       d="m 254.07221,196.27917 c 4.19269,0.99907 13.14886,-4.2529 17.05946,-5.5423 6.82317,-2.24975 8.21465,3.82931 13.34519,4.35426 3.59348,0.36768 9.04652,3.8094 10.29608,-4.253 0.57242,-3.69339 0.69191,-7.77141 -1.66758,-8.42991 -2.3595,-0.65849 -3.35045,-0.5929 -5.50406,-2.40949 -3.69798,-3.11927 2.85984,-8.58357 -3.1142,-11.09113 -6.71608,-2.81904 -10.04898,-3.99697 -12.74665,3.55007 -3.2973,9.22458 -5.07668,6.21524 -11.21624,8.36677 -1.3272,0.46509 -8.35654,2.07102 -9.72924,2.64418 -1.37269,0.57315 0.54911,2.21929 5.41931,5.28663 2.95062,1.85834 -3.72846,7.14591 -2.14207,7.52392 z"
       id="path9"
       sodipodi:nodetypes="ssssssssssss"
       inkscape:label="Upper right" /></g><g
     inkscape:groupmode="layer"
     id="layer11"
     inkscape:label="Skull"
     style="display:inline;opacity:1;fill:#000000"
     transform="matrix(0.69772966,0,0,0.69772966,41.540383,-199.02641)"><path
       style="display:inline;opacity:1;fill:#000000;stroke-width:0.123233"
       d="m 188.35117,345.81287 c 2.8925,22.84349 -5.27082,44.97716 -21.13722,58.26863 -46.75056,39.16356 28.8488,18.37573 -25.97271,55.33883 -54.821494,36.96311 -34.76189,59.40147 -78.168288,51.31112 0,0 -7.326219,-0.4547 -26.798392,5.16404 -31.205897,9.00452 -24.182572,-23.6053 -17.231471,-38.79639 0,0 -16.312194,-16.66941 -5.031523,-19.01738 0,0 -5.411283,-10.09679 -6.345276,-17.37763 -0.933982,-7.28084 2.83665,-8.22808 7.238223,-7.99664 4.401573,0.23144 8.04059,0.31413 5.732874,1.15159 -2.307717,0.83745 -10.216494,-0.97633 -11.090995,2.21516 -0.874488,3.19149 -0.619124,6.56195 1.320273,11.4189 1.939392,4.85694 5.211186,10.78178 5.211186,10.78178 0,0 11.578061,2.21119 12.98112,0.50024 1.226267,-1.49534 -0.217189,-7.99745 -0.49123,-12.53552 -0.263664,-4.36615 -0.203004,-7.34195 -1.80006,-9.18209 -1.59705,-1.84016 -5.719926,-2.7725 -4.447864,-3.21835 1.683981,-0.59023 4.668689,0.3196 5.812749,1.86641 1.466482,1.98275 2.361562,21.08839 3.781487,23.14522 0,0 10.682218,2.60499 11.592401,0.57675 0.661019,-1.47299 -0.06253,-8.62546 -0.09419,-12.14466 -0.02586,-2.87233 0.294277,-7.97122 -3.427188,-9.59187 -3.721461,-1.62062 -7.63921,-0.22674 -8.888438,-1.11847 -1.352586,-0.96549 -0.649099,-2.15849 2.398954,-1.40049 4.262059,1.05989 6.778165,0.6972 8.618399,1.88749 2.128962,1.37703 2.447119,5.04777 2.868739,7.92601 0.488453,3.33437 -0.09071,13.06435 1.638509,14.53871 0,0 13.885798,2.69408 14.937379,0.24127 1.970151,-4.59541 0.371335,-13.13004 -2.470672,-17.44008 -1.699862,-2.57791 -12.891321,-2.04858 -13.396174,-3.44654 -0.646299,-1.78957 8.714408,0.56011 11.251873,0.66688 3.400295,0.14306 3.527531,0.16961 4.858799,4.22672 1.158081,3.52925 2.584799,10.61775 2.764891,15.91948 v 0 c 0,0 14.938641,2.18696 16.771354,-3.41782 1.868898,-5.71541 1.959746,-14.8607 -2.718496,-16.70414 -3.870104,-1.52501 -12.004778,1.19223 -14.244174,1.70243 -2.81212,0.64069 -5.991286,-0.4036 2.986524,-2.00282 8.597295,-1.53144 10.919856,-3.36948 13.602056,0.25115 2.343682,3.16365 3.759787,6.26358 3.018362,10.4646 -0.453723,2.57081 -0.376774,4.96543 -0.251249,7.08709 1.037794,1.67398 3.100074,0.71037 12.303624,-0.65795 4.024444,-0.59831 7.543604,-0.73305 8.377344,-2.98595 1.1345,-3.06563 -0.57448,-6.4602 -1.72561,-9.28775 -2.17018,-5.33063 -2.861714,-10.15814 -10.346074,-8.7503 -4.6875,0.88174 -7.50854,2.55953 -8.660288,3.07167 -3.559494,1.58271 -0.0784,-2.35971 1.165178,-2.64539 9.12335,-2.0961 12.19595,-2.70239 15.09466,-0.54037 2.983774,2.22549 4.411814,8.24123 6.196624,14.49284 0,0 3.1682,3.78539 6.74885,1.22413 3.58067,-2.56126 8.46016,-5.48274 11.10856,-10.01151 2.39737,-4.09951 2.09824,-2.95615 1.37061,-9.12031 -1.35525,-11.48106 -3.96213,-10.65163 -10.29398,-6.42623 -8.04952,5.37164 -11.07028,8.57268 -12.48699,9.65542 -0.75496,0.577 -0.81597,-0.62913 -0.4882,-1.56248 0.23383,-0.66581 0.83302,-1.21222 3.06662,-2.6562 4.46719,-2.88792 10.49865,-8.1894 12.82676,-9.21853 2.32812,-1.02912 4.02491,-1.72709 3.9527,-2.33433 -0.71321,-5.99655 3.40401,-20.30599 1.21653,-21.54099 l -3e-5,10e-6 c 0,0 -1.22992,0.73808 -4.47971,2.9772 -1.57308,1.08385 -2.33951,1.51919 -3.74254,3.41208 -1.11622,1.50598 -0.019,1.75564 0.50023,2.83664 1.60416,3.33974 2.43392,3.70941 3.17612,6.08678 0.40863,1.30893 -1.55199,3.52736 -2.97884,5.61564 -1.42685,2.08828 -7.6778,6.86252 -9.44875,8.23578 -1.77096,1.37324 -4.3067,1.37792 -5.07172,0.40613 -0.765,-0.97181 -0.0372,-2.15147 1.99096,-1.20297 2.02811,0.9485 6.66256,-2.64742 10.76385,-7.03667 2.27627,-2.43609 3.16466,-3.90988 3.07463,-5.50034 -0.09,-1.59047 -1.34963,-3.73892 -2.3512,-5.64045 -1.3916,-2.64195 -2.50163,-2.67502 -12.22541,0.77459 -7.507624,2.66341 -7.542054,2.88709 -6.395714,6.55821 1.15474,3.69797 4.454694,10.28448 2.92629,13.92667 -0.91612,2.18319 -14.14957,4.62671 -17.211659,4.70721 -1.164412,0.0306 -1.107127,-3.61675 1.096653,-1.94693 1.307336,0.99057 3.945776,0.17262 6.662226,-0.41074 3.42299,-0.73504 8.13211,-1.39345 8.35233,-4.29572 0.28821,-3.79816 -0.39756,-4.73797 -1.86886,-9.32531 -1.60095,-4.99157 -2.40372,-6.31745 -3.91577,-5.90153 -3.96388,1.09039 -14.143818,1.94408 -14.143818,1.94408 -3.062082,0.0805 -3.884995,0.0476 -1.294631,5.45232 2.590376,5.40474 4.099602,13.7078 2.400717,14.86339 -2.688229,1.82854 -9.513179,3.29359 -14.17254,3.57347 -2.48688,0.14938 -4.015589,0.33942 -4.000597,-0.53505 0.04932,-2.87667 1.766663,-0.63049 3.437948,-0.59683 3.137075,0.0632 4.550634,-0.0296 9.576017,-1.88514 1.903587,-0.70287 3.670785,-0.96763 4.061459,-2.3916 0.390684,-1.42398 -0.237297,-4.40479 -0.543348,-6.52354 -0.626447,-4.33676 -2.930232,-8.86246 -4.489862,-10.34507 -2.837479,-2.69736 -14.473278,1.28748 -14.473278,1.28748 0.319966,1.20543 0.769929,3.88422 1.383521,8.41305 0.606676,4.47786 0.609294,9.83536 -0.513699,11.9081 -0.736708,1.35979 -3.940031,0.10422 -6.34173,-0.098 -2.205949,-0.18571 -5.161907,-0.98389 -7.243047,-1.17095 -2.081129,-0.18706 -1.822334,-1.03946 -1.620719,-2.34169 0.201625,-1.30222 1.076542,0.53456 3.072276,1.13964 1.995721,0.60507 4.644378,0.86474 8.795316,1.48714 3.382855,0.50723 3.106609,-5.64569 2.629952,-8.98375 -0.369679,-2.58886 -0.216399,-8.38329 -2.53877,-10.29971 -2.688565,-2.21859 -9.385613,-2.23648 -11.600879,-1.04518 -2.215265,1.1913 -0.833171,2.99213 -0.725952,12.40793 0.0186,1.63277 -0.96645,7.04369 -3.668285,6.56618 -4.186681,-0.73994 -7.300323,-1.42239 -9.209195,-1.64869 -1.908875,-0.22631 -3.237861,-2.96976 -0.449964,-1.77423 0.684659,0.29362 6.573258,2.59172 9.895224,1.48843 3.52337,-1.17018 1.214426,-8.7989 1.427337,-13.43175 0.212911,-4.63285 0.907215,-4.00793 -1.423366,-4.65678 -5.032545,-1.4011 -9.114944,-0.92199 -10.48552,-0.18656 -2.266563,1.21621 -0.882695,3.43715 -0.958413,8.72043 -0.05124,3.57378 -1.531001,5.88559 -1.67257,7.82839 -0.118702,1.62887 -3.272024,0.92814 -4.478247,0.65914 -2.111212,-0.47085 -1.104641,-2.09425 2.13872,-1.47789 2.07933,0.39515 3.414985,-8.76808 2.602143,-12.66933 -0.592116,-2.84158 -0.347375,-3.29843 -2.416752,-3.60776 -2.06939,-0.3093 -6.452832,-0.47111 -8.886493,-0.54691 -3.526256,1.32061 -7.263538,8.66837 -6.647851,13.14076 0.526046,3.82121 5.0279,3.34599 9.447444,3.08405 4.406074,-0.26115 -1.367605,1.58953 -1.367605,1.58953 0,0 -5.918256,-0.09 -7.305276,-1.00823 -1.387009,-0.91824 -2.338904,-1.3185 -2.691329,-4.45606 -0.352434,-3.13755 3.044552,-7.95875 5.448484,-11.14425 1.186846,-1.57271 -0.131283,-1.77036 -0.131283,-1.77036 -5.469025,0.66845 -10.357744,-11.77172 -6.616296,-19.76367 7.134069,-15.23878 5.715834,-2.19942 13.300906,-4.79866 6.043741,-2.07106 9.847436,-7.51629 12.333156,-12.21736 2.48573,-4.70108 3.653473,-8.65801 4.425314,-7.75246 1.18612,1.39159 -4.053504,13.08794 -7.058086,18.32599 -5.262748,9.17481 0.928566,12.44408 3.771069,11.60093 5.95357,-1.76597 3.481559,-15.86625 5.576632,-11.05184 3.379805,7.76659 4.643647,10.82166 11.117626,7.80281 3.763421,-1.7549 2.467717,-9.21362 0.54699,-10.46036 -1.294758,-0.84042 -10.466399,-7.89178 -11.727483,-12.89115 -0.612954,-2.42975 4.99663,-12.36513 10.240897,-4.88741 2.622134,3.73886 11.751709,7.11061 21.33206,8.05651 9.580354,0.9459 19.611486,-0.53404 24.036756,-6.49857 8.850554,-11.92906 2.86485,-21.15003 1.66245,-23.39625 -1.2024,-2.24622 -12.203331,-10.74458 -20.476253,-4.99553 -8.272924,5.74906 -25.234623,24.15081 -37.276132,21.68146 -11.211812,-2.29921 -10.681239,-1.85008 -20.358811,-5.57527 -8.524419,-3.2813 -9.561645,9.85687 -9.406705,12.33574 0.674842,10.79603 -5.303665,-1.43558 -5.303665,-1.43558 -1.336755,-1.43157 9.7441,-21.72408 9.7441,-21.72408 0.02364,-0.12948 1.673371,-9.108 7.17846,-19.88072 0,0 60.565274,4.35624 76.379386,7.59066 15.814134,3.23442 86.814754,8.20883 92.095544,12.73492 z m -7.26498,-23.07875 C 168.2612,295.35079 138.00866,276.0392 65.568837,289.79915 c -13.877886,2.63612 -22.841863,7.52127 -30.515603,15.07517 0,0 124.183246,4.82216 146.032956,17.8598 z"
       id="path13"
       sodipodi:nodetypes="ccsssssccccsssssssccscssssssscssssssssssssssssssssccsssssssssssssssssccssscssscsscsssssssssssssssssssssssscsscssssscssssscsssssssscssssssscccssssccscc"
       inkscape:label="Main" /></g><g
     inkscape:groupmode="layer"
     id="layer3"
     inkscape:label="Headband"
     style="opacity:1"
     transform="translate(-24.90673,-67.612559)"><path
       style="font-variation-settings:normal;opacity:1;vector-effect:none;fill:#000000;fill-opacity:1;stroke-width:0.264583;stroke-linecap:butt;stroke-linejoin:miter;stroke-miterlimit:4;stroke-dasharray:none;stroke-dashoffset:0;stroke-opacity:1;-inkscape-stroke:none"
       d="m 203.81341,113.4343 c 0.91168,0.62393 6.88271,1.99198 10.82138,-1.60303 1.80868,-1.65086 3.46197,4.11144 5.25131,11.10148 2.21075,8.63622 9.82323,13.00037 9.17499,16.23875 -0.63114,3.15292 -6.34629,20.51754 -10.22067,3.27383 -4.87799,-21.71052 -14.32625,-25.08029 -15.02701,-29.01103 z"
       id="path12"
       sodipodi:nodetypes="cssssc"
       inkscape:label="End (left)" /><path
       style="font-variation-settings:normal;vector-effect:none;fill:#000000;fill-opacity:1;stroke-width:0.264583;stroke-linecap:butt;stroke-linejoin:miter;stroke-miterlimit:4;stroke-dasharray:none;stroke-dashoffset:0;stroke-opacity:1;-inkscape-stroke:none"
       d="m 217.79284,109.53049 c 0,0 1.16561,-1.98761 0.53098,-8.00049 -0.32067,-3.038324 9.60402,6.83111 12.80718,13.29657 3.9575,7.98811 13.9877,8.81496 14.02668,12.11735 0.019,1.60763 -2.33052,6.72191 -3.67358,10.94987 -0.60425,1.90218 -2.67241,2.66851 -5.1568,-4.90942 -2.397,-7.31142 -21.10643,-19.85093 -18.53446,-23.45388 z"
       id="path12-9"
       sodipodi:nodetypes="csssssc"
       inkscape:label="End (right)" /><path
       style="font-variation-settings:normal;display:inline;opacity:1;vector-effect:none;fill:#000000;fill-opacity:1;stroke-width:0.264583;stroke-linecap:butt;stroke-linejoin:miter;stroke-miterlimit:4;stroke-dasharray:none;stroke-dashoffset:0;stroke-opacity:1;-inkscape-stroke:none"
       d="m 200.2193,109.34153 c 0,0 4.49046,5.59964 10.20654,3.03739 3.72785,-1.67102 6.76456,-2.57912 6.0225,-6.21587 -0.7421,-3.63675 2.69069,-4.89457 -3.3369,-4.77549 -7.01516,0.13858 -9.71374,-0.68453 -11.55506,2.24335 -1.84133,2.92789 -2.27793,0.82172 -1.33708,5.71062 z"
       id="path14"
       sodipodi:nodetypes="cssssc"
       inkscape:label="Knot (lower)" /><path
       style="font-variation-settings:normal;display:inline;opacity:1;vector-effect:none;fill:#000000;fill-opacity:1;stroke-width:0.264583;stroke-linecap:butt;stroke-linejoin:miter;stroke-miterlimit:4;stroke-dasharray:none;stroke-dashoffset:0;stroke-opacity:1;-inkscape-stroke:none"
       d="m 199.04221,103.03603 c 0,0 1.6238,-4.262269 8.65163,-3.787511 7.02783,0.474748 10.43035,2.121431 8.09579,-1.671467 -2.33457,-3.79291 -10.47084,-7.99394 -13.88178,-4.362463 -3.41094,3.631479 -4.47361,1.6247 -3.93347,5.134454 0.54014,3.509777 1.06783,4.686987 1.06783,4.686987 z"
       id="path15"
       inkscape:label="Knot (upper)" /><path
       style="font-variation-settings:normal;opacity:1;vector-effect:none;fill:#000000;fill-opacity:1;stroke-width:0.264583;stroke-linecap:butt;stroke-linejoin:miter;stroke-miterlimit:4;stroke-dasharray:none;stroke-dashoffset:0;stroke-opacity:1;-inkscape-stroke:none"
       d="m 81.680266,94.095848 c 0,0 3.838263,-8.797658 7.897199,-11.037181 0.72308,-0.398962 25.241475,0.784744 48.879195,2.910867 23.63772,2.126124 47.89384,5.445034 53.00747,8.561322 5.11364,3.11629 4.56894,5.869454 5.47817,9.295204 0.73724,2.77772 3.3302,5.43171 -6.70227,2.87363 -2.59558,-0.66182 -24.33571,-3.39869 -52.58311,-6.763573 -25.83737,-3.077794 -53.197281,-6.17719 -55.976654,-5.840269 z"
       id="path10"
       sodipodi:nodetypes="cssssssc"
       inkscape:label="Main" /></g><metadata
     id="metadata1"><rdf:RDF><cc:Work
         rdf:about=""><dc:creator><cc:Agent><dc:title>bearoforange</dc:title></cc:Agent></dc:creator><dc:rights><cc:Agent><dc:title>bearoforange</dc:title></cc:Agent></dc:rights><dc:publisher><cc:Agent><dc:title>bearoforange</dc:title></cc:Agent></dc:publisher><dc:title>bearoforange (tilted logo)</dc:title><dc:description>v. 1.0.0</dc:description></cc:Work></rdf:RDF></metadata></svg>
